<svg width="163" height="163" viewBox="0 0 163 163"  xmlns="http://www.w3.org/2000/svg">
<path fill-rule="evenodd" clip-rule="evenodd" d="M7.3449 7.34481C17.1381 -2.4483 33.0159 -2.44826 42.809 7.34488L81.5 46.0359L120.191 7.34488C129.984 -2.44826 145.862 -2.4483 155.655 7.34481C165.448 17.1379 165.448 33.0157 155.655 42.8088L116.964 81.5L155.655 120.191C165.448 129.984 165.448 145.862 155.655 155.655C145.862 165.448 129.984 165.448 120.191 155.655L81.5 116.964L42.809 155.655C33.0159 165.448 17.1381 165.448 7.3449 155.655C-2.44827 145.862 -2.4483 129.984 7.34483 120.191L46.0359 81.5L7.34483 42.8088C-2.4483 33.0157 -2.44827 17.1379 7.3449 7.34481Z" fill="current"/>
</svg>
