<svg width="20" height="21" viewBox="0 0 20 21" fill="none" xmlns="http://www.w3.org/2000/svg">
<path d="M10 15.592C10.6748 15.6015 11.3447 15.4767 11.9708 15.225C12.597 14.9734 13.1668 14.5998 13.6473 14.1259C14.1278 13.6521 14.5094 13.0875 14.7698 12.465C15.0303 11.8424 15.1644 11.1743 15.1644 10.4995C15.1644 9.82467 15.0303 9.15657 14.7698 8.53402C14.5094 7.91147 14.1278 7.34688 13.6473 6.87306C13.1668 6.39924 12.597 6.02563 11.9708 5.77395C11.3447 5.52227 10.6748 5.39754 10 5.40699C8.66174 5.42575 7.38465 5.97053 6.44493 6.92352C5.5052 7.87651 4.97836 9.16111 4.97836 10.4995C4.97836 11.8379 5.5052 13.1225 6.44493 14.0755C7.38465 15.0285 8.66174 15.5732 10 15.592Z" fill="current"/>
<g opacity="0.35">
<path d="M8.472 2.86001C8.472 1.98501 9.033 1.34001 9.909 1.33301H10.091C10.967 1.34001 11.528 1.98501 11.528 2.86101C11.528 3.73701 10.967 4.38101 10.091 4.38801H9.909C9.033 4.38201 8.472 3.73701 8.472 2.86101M8.472 18.138C8.472 19.014 9.033 19.659 9.909 19.666H10.09C10.967 19.659 11.528 19.014 11.528 18.138C11.528 17.262 10.967 16.618 10.091 16.611H9.909C9.033 16.617 8.472 17.261 8.472 18.138ZM14.321 4.01801C14.941 3.39801 15.793 3.33801 16.417 3.95401L16.482 4.01801L16.546 4.08201C17.161 4.70601 17.101 5.55901 16.482 6.17801C15.862 6.79801 15.01 6.85801 14.386 6.24201L14.257 6.11401C13.642 5.49001 13.702 4.63701 14.321 4.01801ZM3.518 14.821C2.898 15.441 2.839 16.293 3.454 16.917L3.583 17.046C4.207 17.661 5.059 17.601 5.679 16.982C6.299 16.362 6.358 15.51 5.743 14.886L5.614 14.757C4.99 14.142 4.138 14.202 3.518 14.821ZM2.361 12.027C1.485 12.027 0.841 11.467 0.834 10.59V10.409C0.84 9.53201 1.484 8.97201 2.361 8.97201C3.238 8.97201 3.882 9.53201 3.889 10.409V10.59C3.882 11.466 3.237 12.027 2.361 12.027ZM17.639 12.027C18.515 12.027 19.159 11.467 19.166 10.59V10.409C19.16 9.53201 18.516 8.97201 17.639 8.97201C16.762 8.97201 16.118 9.53201 16.111 10.409V10.59C16.118 11.466 16.763 12.027 17.639 12.027ZM3.518 6.17801C2.898 5.55801 2.839 4.70601 3.454 4.08201L3.583 3.95401C4.207 3.33901 5.059 3.39801 5.679 4.01801C6.299 4.63801 6.358 5.49001 5.743 6.11401L5.614 6.24201C4.99 6.85701 4.138 6.79801 3.518 6.17801ZM14.321 16.982C14.941 17.602 15.793 17.661 16.417 17.046L16.546 16.917C17.161 16.293 17.101 15.441 16.482 14.821C15.862 14.201 15.01 14.142 14.386 14.757L14.257 14.886C13.642 15.51 13.702 16.362 14.321 16.982Z" fill="current"/>
</g>
</svg>
