<svg width="32" height="32" viewBox="0 0 32 32" fill="none" xmlns="http://www.w3.org/2000/svg">
<path opacity="0.35" fill-rule="evenodd" clip-rule="evenodd" d="M27.882 10.97C25.962 11.452 23.696 11.485 21.738 10.886C21.3312 10.7586 20.9604 10.5366 20.6559 10.2384C20.3514 9.94013 20.1218 9.57401 19.986 9.17C19.29 7.13 19.118 4.632 19.629 2.71C18.4196 2.68019 17.2098 2.66552 16 2.666C11.354 2.666 8.586 2.848 7.017 3.018C5.855 3.143 4.959 3.93 4.741 5.078C4.402 6.869 4 10.21 4 16C4 21.79 4.402 25.133 4.741 26.92C4.959 28.07 5.855 28.857 7.017 28.982C8.586 29.152 11.354 29.334 16 29.334C20.646 29.334 23.414 29.151 24.983 28.982C26.145 28.857 27.041 28.069 27.259 26.921C27.598 25.133 28 21.791 28 16.001C28 14.06 27.955 12.394 27.882 10.97ZM10.667 17.334C10.3133 17.334 9.97415 17.1935 9.72407 16.9434C9.47399 16.6933 9.3335 16.3542 9.3335 16.0005C9.3335 15.6468 9.47399 15.3076 9.72407 15.0576C9.97415 14.8075 10.3133 14.667 10.667 14.667H16C16.3537 14.667 16.6928 14.8075 16.9429 15.0576C17.193 15.3076 17.3335 15.6468 17.3335 16.0005C17.3335 16.3542 17.193 16.6933 16.9429 16.9434C16.6928 17.1935 16.3537 17.334 16 17.334H10.667ZM10.667 23.334C10.3133 23.334 9.97415 23.1935 9.72407 22.9434C9.47399 22.6933 9.3335 22.3542 9.3335 22.0005C9.3335 21.6468 9.47399 21.3076 9.72407 21.0576C9.97415 20.8075 10.3133 20.667 10.667 20.667H20C20.1751 20.667 20.3485 20.7015 20.5103 20.7685C20.6721 20.8355 20.8191 20.9337 20.9429 21.0576C21.0668 21.1814 21.165 21.3284 21.232 21.4902C21.299 21.652 21.3335 21.8254 21.3335 22.0005C21.3335 22.1756 21.299 22.349 21.232 22.5108C21.165 22.6726 21.0668 22.8196 20.9429 22.9434C20.8191 23.0672 20.6721 23.1655 20.5103 23.2325C20.3485 23.2995 20.1751 23.334 20 23.334H10.667Z" fill="black"/>
<path d="M9.33301 22C9.33301 22.737 9.93001 23.334 10.667 23.334H20C20.3537 23.334 20.6929 23.1935 20.9429 22.9434C21.193 22.6933 21.3335 22.3542 21.3335 22.0005C21.3335 21.6468 21.193 21.3077 20.9429 21.0576C20.6929 20.8075 20.3537 20.667 20 20.667H10.667C9.93001 20.667 9.33301 21.264 9.33301 22ZM9.33301 16C9.33301 16.737 9.93001 17.334 10.667 17.334H16C16.3537 17.334 16.6929 17.1935 16.9429 16.9434C17.193 16.6933 17.3335 16.3542 17.3335 16.0005C17.3335 15.6468 17.193 15.3077 16.9429 15.0576C16.6929 14.8075 16.3537 14.667 16 14.667H10.667C9.93001 14.667 9.33301 15.264 9.33301 16ZM27.882 10.97C25.962 11.452 23.696 11.484 21.738 10.886C21.3311 10.7585 20.9603 10.5364 20.6558 10.238C20.3512 9.93952 20.1217 9.5732 19.986 9.169C19.29 7.129 19.118 4.631 19.629 2.709C19.629 2.709 21.261 3.333 24.261 6.333C27.261 9.333 27.881 10.969 27.881 10.969" fill="black"/>
</svg>
