<svg width="32" height="32" viewBox="0 0 32 32" fill="none" xmlns="http://www.w3.org/2000/svg">
<path opacity="0.35" d="M28.054 9.58699L16.001 16.56L3.948 9.58699C4.48 8.59999 5.254 7.73399 6.12 7.25399L13.24 3.30699C14.76 2.45399 17.24 2.45399 18.76 3.30699L25.88 7.25399C26.746 7.73399 27.52 8.59999 28.053 9.58699" fill="current"/>
<path opacity="0.5" d="M16 16.56V29.334C15 29.334 14 29.12 13.24 28.694L6.12 24.747C4.508 23.854 3.188 21.614 3.188 19.774V12.227C3.188 11.374 3.481 10.44 3.948 9.58698L16 16.56Z" fill="current"/>
<path d="M28.814 12.227V19.774C28.814 21.614 27.494 23.854 25.881 24.747L18.761 28.694C18.001 29.12 17.001 29.334 16.001 29.334V16.56L28.054 9.58698C28.521 10.44 28.814 11.374 28.814 12.227Z" fill="current"/>
</svg>
