<svg width="24" height="24" viewBox="0 0 24 24" fill="none" xmlns="http://www.w3.org/2000/svg">
<path d="M9 19C9 19.84 9.13 20.66 9.37 21.42C5.53 20.09 2.63 16.56 2.33 12.43C2.03 8.03999 4.56 3.93999 8.65 2.21999C9.71 1.77999 10.25 2.09999 10.48 2.32999C10.7 2.54999 11.01 3.07999 10.57 4.08999C10.1235 5.12562 9.8954 6.24222 9.9 7.36999C9.91 9.40999 10.71 11.3 12.01 12.75C11.0708 13.4986 10.3125 14.4492 9.79133 15.5313C9.27021 16.6134 8.99972 17.799 9 19Z" fill="current"/>
<path opacity="0.4" d="M21.21 17.72C20.2323 19.0464 18.9561 20.1242 17.4847 20.866C16.0132 21.6078 14.3878 21.9928 12.74 21.99C12.58 21.99 12.42 21.98 12.26 21.97C11.26 21.93 10.29 21.74 9.37 21.42C9.13 20.66 9 19.84 9 19C9 16.47 10.18 14.21 12.01 12.75C12.7561 13.5918 13.6637 14.2752 14.6789 14.7596C15.6941 15.244 16.7963 15.5196 17.92 15.57C18.55 15.6 19.18 15.55 19.8 15.44C20.92 15.24 21.37 15.66 21.53 15.93C21.7 16.2 21.88 16.79 21.21 17.72Z" fill="current"/>
</svg>
