<svg width="12" height="12" viewBox="0 0 12 12"  xmlns="http://www.w3.org/2000/svg">
<path fill-rule="evenodd" clip-rule="evenodd" d="M4.932 3.13197C5.01638 3.0477 5.13075 3.00037 5.25 3.00037C5.36925 3.00037 5.48363 3.0477 5.568 3.13197L8.118 5.68197C8.20227 5.76635 8.24961 5.88072 8.24961 5.99997C8.24961 6.11922 8.20227 6.23359 8.118 6.31797L5.568 8.86797C5.4827 8.94746 5.36987 8.99073 5.25329 8.98868C5.13671 8.98662 5.02548 8.93939 4.94303 8.85694C4.86058 8.7745 4.81336 8.66326 4.8113 8.54668C4.80924 8.4301 4.85252 8.31728 4.932 8.23197L7.164 5.99997L4.932 3.76797C4.84773 3.6836 4.8004 3.56922 4.8004 3.44997C4.8004 3.33072 4.84773 3.21635 4.932 3.13197Z" fill="current"/>
</svg>
