<svg width="24" height="24" viewBox="0 0 24 24"  xmlns="http://www.w3.org/2000/svg">
<path fill-rule="evenodd" clip-rule="evenodd" d="M11.5 3C12.0523 3 12.5 3.44772 12.5 4V12.5C12.5 13.0523 12.0523 13.5 11.5 13.5C10.9477 13.5 10.5 13.0523 10.5 12.5V4C10.5 3.44772 10.9477 3 11.5 3ZM6.19666 5.78245C6.58719 6.17297 6.58719 6.80614 6.19667 7.19667C5.14779 8.24557 4.43349 9.58195 4.14411 11.0368C3.85473 12.4917 4.00326 13.9997 4.57092 15.3701C5.13858 16.7406 6.09987 17.9119 7.33324 18.736C8.5666 19.5601 10.0166 20 11.5 20C12.9834 20 14.4334 19.5601 15.6668 18.736C16.9001 17.9119 17.8614 16.7406 18.4291 15.3701C18.9967 13.9997 19.1453 12.4917 18.8559 11.0368C18.5665 9.58195 17.8522 8.24557 16.8033 7.19667C16.4128 6.80614 16.4128 6.17297 16.8033 5.78245C17.1939 5.39193 17.827 5.39194 18.2176 5.78247C19.5461 7.11107 20.4509 8.80382 20.8175 10.6466C21.184 12.4895 20.9959 14.3996 20.2768 16.1355C19.5578 17.8714 18.3402 19.3551 16.7779 20.399C15.2156 21.4428 13.3789 22 11.5 22C9.62108 22 7.78436 21.4428 6.2221 20.399C4.65983 19.3551 3.44219 17.8714 2.72316 16.1355C2.00412 14.3996 1.81599 12.4895 2.18254 10.6466C2.54909 8.80382 3.45386 7.11107 4.78245 5.78247C5.17297 5.39194 5.80613 5.39193 6.19666 5.78245Z" fill="current"/>
</svg>
