<svg width="20" height="21" viewBox="0 0 20 21" fill="current" xmlns="http://www.w3.org/2000/svg">
<path opacity="0.35" d="M15.625 8.00001V8.58701C15.625 9.29101 15.825 9.97901 16.202 10.565L17.125 12.001C17.968 13.313 17.325 15.095 15.858 15.509C12.028 16.5936 7.97202 16.5936 4.14199 15.509C2.67599 15.095 2.03199 13.313 2.87499 12.001L3.79799 10.565C4.17612 9.97464 4.37674 9.28809 4.37599 8.58701V8.00001C4.37599 4.77901 6.89399 2.16701 9.99999 2.16701C13.106 2.16701 15.625 4.77901 15.625 8.00001Z" />
<path d="M10.625 5.5C10.625 5.33424 10.5591 5.17527 10.4419 5.05806C10.3247 4.94085 10.1657 4.875 9.99997 4.875C9.83421 4.875 9.67524 4.94085 9.55803 5.05806C9.44082 5.17527 9.37497 5.33424 9.37497 5.5V8.833C9.37497 8.99876 9.44082 9.15773 9.55803 9.27494C9.67524 9.39215 9.83421 9.458 9.99997 9.458C10.1657 9.458 10.3247 9.39215 10.4419 9.27494C10.5591 9.15773 10.625 8.99876 10.625 8.833V5.5ZM6.03497 15.954C6.30697 16.7911 6.837 17.5206 7.54909 18.038C8.26118 18.5554 9.11878 18.834 9.99897 18.834C10.8792 18.834 11.7368 18.5554 12.4489 18.038C13.1609 17.5206 13.691 16.7911 13.963 15.954C11.3435 16.4453 8.65447 16.4453 6.03497 15.954Z" />
</svg>
