<svg width="132" height="132" viewBox="0 0 132 132" fill="none" xmlns="http://www.w3.org/2000/svg">
<rect width="132" height="132" rx="66" fill="#13C39C"/>
<path d="M91.4973 39.881C92.776 38.6612 94.4777 37.9868 96.2432 38.0002C98.0088 38.0136 99.7001 38.7137 100.96 39.9528C102.22 41.1919 102.951 42.873 102.998 44.6415C103.044 46.41 102.403 48.1275 101.21 49.4316L64.9904 94.8197C64.3676 95.4919 63.6159 96.0313 62.7803 96.4057C61.9447 96.7801 61.0423 96.9818 60.127 96.9988C59.2118 97.0158 58.3026 96.8477 57.4537 96.5045C56.6048 96.1614 55.8337 95.6502 55.1865 95.0016L31.1669 70.9341C30.498 70.3096 29.9615 69.5564 29.5894 68.7196C29.2173 67.8828 29.0172 66.9795 29.0011 66.0635C28.9849 65.1475 29.1531 64.2377 29.4955 63.3883C29.8379 62.5388 30.3476 61.7672 30.9941 61.1194C31.6406 60.4716 32.4107 59.9609 33.2584 59.6178C34.1062 59.2747 35.0142 59.1062 35.9284 59.1224C36.8425 59.1385 37.7441 59.339 38.5792 59.7119C39.4143 60.0847 40.166 60.6223 40.7893 61.2926L59.798 80.3301L91.3248 40.0811L91.4973 39.881Z" fill="white"/>
</svg>
