<svg width="132" height="132" viewBox="0 0 132 132" fill="none" xmlns="http://www.w3.org/2000/svg">
<rect width="132" height="132" rx="66" fill="#FB4B4B"/>
<path d="M46.1186 37.3848C43.7068 34.973 39.7966 34.9729 37.3848 37.3848C34.9729 39.7966 34.973 43.7068 37.3848 46.1185L57.0358 65.7695L37.3848 85.4205C34.9729 87.8324 34.973 91.7425 37.3848 94.1543C39.7965 96.5661 43.7067 96.5662 46.1186 94.1543L65.7696 74.5033L85.4206 94.1543C87.8323 96.5661 91.7425 96.5662 94.1543 94.1543C96.5662 91.7424 96.5661 87.8323 94.1543 85.4205L74.5033 65.7695L94.1543 46.1185C96.5662 43.7067 96.5661 39.7965 94.1543 37.3848C91.7426 34.973 87.8324 34.9729 85.4206 37.3848L65.7696 57.0358L46.1186 37.3848Z" fill="white"/>
</svg>
