<svg width="136" height="136" viewBox="0 0 136 136"  xmlns="http://www.w3.org/2000/svg">
<g clip-path="url(#clip0_2282_5076)">
<path d="M123.614 55.5868H80.3743V12.3832C80.3743 5.5446 74.8567 0 68.018 0C61.1794 0 55.6647 5.5446 55.6647 12.3862V55.6168H12.4043C5.56562 55.6168 0.0060426 61.1614 0.00903807 68.003C0.0060426 71.4208 1.38695 74.5541 3.62456 76.7917C5.86517 79.0353 8.95649 80.4521 12.3713 80.4521H55.6647V123.623C55.6647 127.044 57.0217 130.141 59.2623 132.376C61.5029 134.616 64.5852 136.003 68.006 136.003C74.8417 136.003 80.3743 130.458 80.3743 123.623V80.4491H123.614C130.452 80.4491 135.997 74.8566 135.994 68.018C135.991 61.1823 130.446 55.5868 123.614 55.5868Z" fill="current"/>
</g>
<defs>
<clipPath id="clip0_2282_5076">
<rect width="136" height="136" fill="white"/>
</clipPath>
</defs>
</svg>
