<svg width="20" height="21" viewBox="0 0 20 21" xmlns="http://www.w3.org/2000/svg">
<g clip-path="url(#clip0_2087_1580)">
<path d="M13.125 14.25C16.9219 14.25 20 11.1719 20 7.375C20 3.57812 16.9219 0.5 13.125 0.5C9.32812 0.5 6.25 3.57812 6.25 7.375C6.25 8.10547 6.36328 8.8125 6.57422 9.47266L0.273438 15.7734C0.0976562 15.9492 0 16.1875 0 16.4375V19.5625C0 20.082 0.417969 20.5 0.9375 20.5H4.0625C4.58203 20.5 5 20.082 5 19.5625V18H6.5625C7.08203 18 7.5 17.582 7.5 17.0625V15.5H9.0625C9.3125 15.5 9.55078 15.4023 9.72656 15.2266L11.0273 13.9258C11.6875 14.1367 12.3945 14.25 13.125 14.25ZM14.6875 4.25C15.1019 4.25 15.4993 4.41462 15.7924 4.70765C16.0854 5.00067 16.25 5.3981 16.25 5.8125C16.25 6.2269 16.0854 6.62433 15.7924 6.91735C15.4993 7.21038 15.1019 7.375 14.6875 7.375C14.2731 7.375 13.8757 7.21038 13.5826 6.91735C13.2896 6.62433 13.125 6.2269 13.125 5.8125C13.125 5.3981 13.2896 5.00067 13.5826 4.70765C13.8757 4.41462 14.2731 4.25 14.6875 4.25Z" fill="current"/>
</g>
<defs>
<clipPath id="clip0_2087_1580">
<rect width="20" height="20" fill="white" transform="translate(0 0.5)"/>
</clipPath>
</defs>
</svg>
