<svg width="187" height="131" viewBox="0 0 187 131"  xmlns="http://www.w3.org/2000/svg">
<path d="M93.1667 83.85C103.458 83.85 111.8 75.5076 111.8 65.2167C111.8 54.9258 103.458 46.5834 93.1667 46.5834C82.8758 46.5834 74.5333 54.9258 74.5333 65.2167C74.5333 75.5076 82.8758 83.85 93.1667 83.85Z" fill="current"/>
<path d="M93.1667 130.433C149.067 130.433 186.333 65.2167 186.333 65.2167C186.333 65.2167 149.067 0 93.1667 0C37.2667 0 0 65.2167 0 65.2167C0 65.2167 37.2667 130.433 93.1667 130.433ZM93.1667 27.95C113.747 27.95 130.433 44.6362 130.433 65.2167C130.433 85.7972 113.747 102.483 93.1667 102.483C72.5862 102.483 55.9 85.7972 55.9 65.2167C55.9 44.6362 72.5862 27.95 93.1667 27.95Z" fill="current"/>
</svg>
