<svg width="800" height="800" viewBox="0 0 800 800" fill="current" xmlns="http://www.w3.org/2000/svg">
<g clip-path="url(#clip0_15_2)">
<path d="M438.632 41.4852L528.861 224.314C535.136 237.03 547.267 245.841 561.302 247.877L763.071 277.196C798.415 282.336 812.516 325.757 786.95 350.672L640.951 492.983C630.805 502.879 626.166 517.146 628.569 531.114L663.029 732.065C669.07 767.259 632.123 794.093 600.517 777.489L420.058 682.62C407.509 676.028 392.507 676.028 379.958 682.62L199.499 777.489C167.893 794.109 130.947 767.259 136.988 732.065L171.448 531.114C173.851 517.146 169.212 502.879 159.065 492.983L13.0663 350.672C-12.499 325.741 1.60199 282.32 36.9462 277.196L238.715 247.877C252.749 245.841 264.881 237.03 271.156 224.314L361.385 41.4852C377.171 9.46181 422.829 9.46181 438.632 41.4852Z" />
</g>
<defs>
<clipPath id="clip0_15_2">
<rect width="800" height="800" fill="white"/>
</clipPath>
</defs>
</svg>
