<svg width="158" height="158" viewBox="0 0 158 158"  xmlns="http://www.w3.org/2000/svg">
<path d="M19.75 42.041C19.75 38.8517 22.0238 36.2662 24.8286 36.2662L42.3682 36.2631C45.853 36.1627 48.9275 33.643 50.1133 29.9155C50.1445 29.8175 50.1803 29.6966 50.3088 29.2579L51.0646 26.6794C51.5271 25.0984 51.93 23.721 52.4939 22.4898C54.7213 17.626 58.8424 14.2485 63.6047 13.3838C64.8101 13.1649 66.0868 13.1658 67.5522 13.1668H90.4491C91.9145 13.1658 93.191 13.1649 94.3964 13.3838C99.1588 14.2485 103.28 17.626 105.507 22.4898C106.071 23.721 106.474 25.0984 106.936 26.6794L107.692 29.2579C107.821 29.6966 107.857 29.8175 107.888 29.9155C109.074 33.643 112.758 36.1658 116.243 36.2662H133.172C135.976 36.2662 138.25 38.8517 138.25 42.041C138.25 45.2304 135.976 47.8158 133.172 47.8158H24.8286C22.0238 47.8158 19.75 45.2304 19.75 42.041Z" fill="current"/>
<path fill-rule="evenodd" clip-rule="evenodd" d="M76.3377 144.834H81.6623C99.9817 144.834 109.142 144.834 115.097 139.002C121.053 133.17 121.662 123.603 122.881 104.468L124.636 76.8979C125.298 66.516 125.628 61.3253 122.64 58.0359C119.653 54.7465 114.607 54.7465 104.517 54.7465H53.4832C43.3925 54.7465 38.3471 54.7465 35.3594 58.0359C32.3717 61.3253 32.7023 66.516 33.3635 76.8979L35.1193 104.468C36.338 123.603 36.9473 133.17 42.9028 139.002C48.8584 144.834 58.0181 144.834 76.3377 144.834ZM67.4548 80.2416C67.1835 77.3858 64.7637 75.3015 62.0503 75.5872C59.3369 75.8729 57.3573 78.42 57.6286 81.2758L60.9203 115.925C61.1916 118.781 63.6112 120.865 66.3244 120.58C69.0381 120.294 71.0177 117.747 70.7464 114.891L67.4548 80.2416ZM95.9494 75.5872C98.6631 75.8729 100.643 78.42 100.371 81.2758L97.0798 115.925C96.8085 118.781 94.3885 120.865 91.6755 120.58C88.9619 120.294 86.9823 117.747 87.2535 114.891L90.5451 80.2416C90.8164 77.3858 93.2364 75.3015 95.9494 75.5872Z" fill="current"/>
</svg>
