<svg width="16" height="16" viewBox="0 0 16 16" fill="none" xmlns="http://www.w3.org/2000/svg">
<path opacity="0.35" d="M8 7.99999C8.43777 7.99999 8.87124 7.91377 9.27568 7.74625C9.68012 7.57872 10.0476 7.33318 10.3571 7.02363C10.6667 6.71409 10.9122 6.34661 11.0798 5.94217C11.2473 5.53773 11.3335 5.10425 11.3335 4.66649C11.3335 4.22873 11.2473 3.79526 11.0798 3.39082C10.9122 2.98638 10.6667 2.6189 10.3571 2.30935C10.0476 1.99981 9.68012 1.75426 9.27568 1.58674C8.87124 1.41922 8.43777 1.33299 8 1.33299C7.1159 1.33299 6.26802 1.6842 5.64286 2.30935C5.01771 2.9345 4.6665 3.78239 4.6665 4.66649C4.6665 5.55059 5.01771 6.39848 5.64286 7.02363C6.26802 7.64879 7.1159 7.99999 8 7.99999Z" fill="black"/>
<path d="M8.00002 9.66699C4.66002 9.66699 1.94002 11.907 1.94002 14.667C1.93962 14.7108 1.94796 14.7543 1.96455 14.7949C1.98114 14.8355 2.00566 14.8723 2.03666 14.9034C2.06766 14.9344 2.10453 14.9589 2.14511 14.9755C2.18569 14.9921 2.22917 15.0004 2.27302 15H13.726C13.7699 15.0004 13.8133 14.9921 13.8539 14.9755C13.8945 14.9589 13.9314 14.9344 13.9624 14.9034C13.9934 14.8723 14.0179 14.8355 14.0345 14.7949C14.0511 14.7543 14.0594 14.7108 14.059 14.667C14.059 11.907 11.34 9.66699 8.00002 9.66699Z" fill="black"/>
</svg>
