<svg width="45" height="46" viewBox="0 0 45 46" fill="none" xmlns="http://www.w3.org/2000/svg">
<path d="M42.042 17.5787C41.3593 16.8668 40.6552 16.1317 40.4244 15.575C40.2188 15.0784 40.2032 14.0563 40.1897 13.1562C40.1606 11.2166 40.1237 8.80366 38.4091 7.09095C36.6944 5.37823 34.2834 5.34526 32.3438 5.31034C31.4438 5.29677 30.4216 5.28125 29.925 5.07565C29.3683 4.84483 28.6332 4.14073 27.9213 3.45797C26.5481 2.14095 24.8373 0.5 22.5 0.5C20.1627 0.5 18.4519 2.14095 17.0787 3.45797C16.3668 4.14073 15.6317 4.84483 15.075 5.07565C14.5784 5.28125 13.5563 5.29677 12.6562 5.31034C10.7166 5.34914 8.30366 5.37629 6.59483 7.09483C4.88599 8.81336 4.84914 11.2166 4.81034 13.1562C4.79677 14.0563 4.78125 15.0784 4.57565 15.575C4.34483 16.1317 3.64073 16.8668 2.95797 17.5787C1.64095 18.9519 0 20.6724 0 23C0 25.3276 1.64095 27.0481 2.95797 28.431C3.64073 29.1429 4.34483 29.878 4.57565 30.4347C4.78125 30.9313 4.79677 31.9534 4.81034 32.8535C4.83944 34.7931 4.87629 37.206 6.59095 38.9188C8.3056 40.6315 10.7166 40.6644 12.6562 40.6994C13.5563 40.7129 14.5784 40.7285 15.075 40.9341C15.6317 41.1649 16.3668 41.869 17.0787 42.5517C18.4519 43.8591 20.1724 45.5 22.5 45.5C24.8276 45.5 26.5481 43.8591 27.9213 42.542C28.6332 41.8593 29.3683 41.1552 29.925 40.9244C30.4216 40.7188 31.4438 40.7032 32.3438 40.6897C34.2834 40.6606 36.6963 40.6237 38.4091 38.9091C40.1218 37.1944 40.1547 34.7834 40.1897 32.8438C40.2032 31.9438 40.2188 30.9216 40.4244 30.425C40.6552 29.8683 41.3593 29.1332 42.042 28.4213C43.3591 27.0481 45 25.3373 45 23C45 20.6627 43.3591 18.9519 42.042 17.5787ZM38.6825 25.1996C37.7476 26.1694 36.6886 27.2789 36.1241 28.6444C35.5772 29.9634 35.5558 31.3909 35.5422 32.7739C35.5267 33.8136 35.5054 35.2392 35.1252 35.6175C34.745 35.9957 33.3213 36.019 32.2817 36.0345C30.8987 36.0558 29.4711 36.0772 28.1522 36.6164C26.7944 37.1808 25.683 38.2399 24.7073 39.1748C24.0091 39.844 22.9655 40.8448 22.5 40.8448C22.0345 40.8448 20.9909 39.844 20.3004 39.1825C19.3306 38.2476 18.2211 37.1886 16.8556 36.6241C15.5366 36.0772 14.1091 36.0558 12.7261 36.0422C11.6864 36.0267 10.2608 36.0054 9.88254 35.6252C9.50431 35.245 9.48103 33.8213 9.46552 32.7817C9.44418 31.3987 9.42284 29.9711 8.88362 28.6522C8.31918 27.2944 7.26013 26.183 6.32522 25.2073C5.65603 24.5091 4.65517 23.4655 4.65517 23C4.65517 22.5345 5.65603 21.4909 6.31746 20.8004C7.25237 19.8306 8.31142 18.7211 8.87586 17.3556C9.42284 16.0366 9.44418 14.6091 9.45776 13.2261C9.48103 12.1864 9.50431 10.7608 9.89224 10.3922C10.2802 10.0237 11.6961 9.99073 12.7358 9.97522C14.1188 9.95388 15.5463 9.93254 16.8653 9.39332C18.2231 8.82888 19.3345 7.76983 20.3101 6.83491C20.9909 6.15603 22.0345 5.15517 22.5 5.15517C22.9655 5.15517 24.0091 6.15603 24.6996 6.81746C25.6694 7.75237 26.7789 8.81142 28.1444 9.37586C29.4634 9.92284 30.8909 9.94418 32.2739 9.95776C33.3136 9.97328 34.7392 9.99461 35.1175 10.3748C35.4957 10.755 35.519 12.1787 35.5345 13.2183C35.5558 14.6013 35.5772 16.0289 36.1164 17.3478C36.6808 18.7056 37.7399 19.817 38.6748 20.7927C39.3362 21.4832 40.3371 22.5267 40.3371 22.9922C40.3371 23.4578 39.344 24.5091 38.6825 25.1996ZM31.9054 16.6981C32.1224 16.9143 32.2946 17.1713 32.412 17.4542C32.5295 17.7371 32.59 18.0404 32.59 18.3468C32.59 18.6531 32.5295 18.9564 32.412 19.2394C32.2946 19.5223 32.1224 19.7792 31.9054 19.9955L21.0433 30.8575C20.8271 31.0745 20.5701 31.2467 20.2872 31.3642C20.0043 31.4817 19.701 31.5421 19.3946 31.5421C19.0883 31.5421 18.7849 31.4817 18.502 31.3642C18.2191 31.2467 17.9621 31.0745 17.7459 30.8575L13.0907 26.2024C12.8742 25.9859 12.7025 25.7288 12.5853 25.4459C12.4681 25.1631 12.4078 24.8599 12.4078 24.5537C12.4078 24.2475 12.4681 23.9443 12.5853 23.6614C12.7025 23.3785 12.8742 23.1215 13.0907 22.905C13.3072 22.6884 13.5643 22.5167 13.8472 22.3995C14.1301 22.2824 14.4332 22.222 14.7394 22.222C15.0456 22.222 15.3488 22.2824 15.6317 22.3995C15.9146 22.5167 16.1716 22.6884 16.3881 22.905L19.3966 25.9095L28.6119 16.6922C28.8284 16.4762 29.0854 16.305 29.3682 16.1883C29.651 16.0717 29.9539 16.012 30.2598 16.0125C30.5657 16.013 30.8685 16.0739 31.1508 16.1915C31.4332 16.3091 31.6896 16.4813 31.9054 16.6981Z" fill="#0185FF"/>
</svg>
