<svg width="40" height="38" viewBox="0 0 40 38" fill="none" xmlns="http://www.w3.org/2000/svg">
<path d="M11.875 0.250834C12.4609 0.250834 12.9622 0.309428 13.3789 0.426615C13.7956 0.543803 14.1732 0.700053 14.5117 0.895365C14.8503 1.09068 15.1497 1.2925 15.4102 1.50083C15.6706 1.70917 15.931 1.91099 16.1914 2.1063C16.4518 2.30162 16.7383 2.45135 17.0508 2.55552C17.3633 2.65969 17.7214 2.72479 18.125 2.75083H37.5C37.8516 2.75083 38.1771 2.81594 38.4766 2.94615C38.776 3.07635 39.0365 3.25214 39.2578 3.47349C39.4792 3.69484 39.6615 3.96177 39.8047 4.27427C39.9479 4.58677 40.013 4.91229 40 5.25083V14.0594L37.5 11.5594V5.25083H18.125C17.7214 5.25083 17.3698 5.30943 17.0703 5.42662C16.7708 5.5438 16.4844 5.70005 16.2109 5.89537C15.9375 6.09068 15.6706 6.2925 15.4102 6.50083C15.1497 6.70917 14.8568 6.91099 14.5312 7.1063C14.2057 7.30162 13.8281 7.45136 13.3984 7.55552C12.9687 7.65969 12.4609 7.72479 11.875 7.75083H2.5V30.2508H15V32.7508H0V2.75083C0 2.39927 0.0651042 2.07375 0.195312 1.77427C0.325521 1.47479 0.501302 1.21438 0.722656 0.993022C0.94401 0.771667 1.21094 0.589376 1.52344 0.446147C1.83594 0.302917 2.16146 0.237813 2.5 0.250834H11.875ZM11.875 5.25083C12.1875 5.25083 12.4609 5.22479 12.6953 5.17271C12.9297 5.12063 13.1445 5.03599 13.3398 4.9188C13.5352 4.80162 13.724 4.67141 13.9062 4.52818C14.0885 4.38495 14.2969 4.20917 14.5312 4.00083C14.3099 3.80552 14.1081 3.63625 13.9258 3.49302C13.7435 3.34979 13.5482 3.21958 13.3398 3.1024C13.1315 2.98521 12.9167 2.90057 12.6953 2.84849C12.474 2.79641 12.2005 2.76385 11.875 2.75083H2.5V5.25083H11.875ZM31.7773 10.2508L40 18.4735V37.7508H17.5V10.2508H31.7773ZM32.5 17.7508H35.7227L32.5 14.5282V17.7508ZM37.5 35.2508V20.2508H30V12.7508H20V35.2508H37.5ZM25 30.2508H35V32.7508H25V30.2508ZM30 25.2508H35V27.7508H30V25.2508Z" fill="#FF9E43"/>
</svg>
