<svg width="40" height="40" viewBox="0 0 40 40" fill="none" xmlns="http://www.w3.org/2000/svg">
<path d="M10 25C9.46958 25 8.96087 25.2107 8.5858 25.5858C8.21073 25.9609 8.00001 26.4696 8.00001 27V30.564C5.42217 27.6488 3.99948 23.8915 4.00002 20C3.99915 19.4118 4.03388 18.8241 4.10402 18.24C4.14218 17.9762 4.12721 17.7074 4.06 17.4495C3.99279 17.1915 3.87469 16.9496 3.71264 16.7379C3.55059 16.5263 3.34787 16.3491 3.11638 16.2169C2.8849 16.0848 2.62932 16.0002 2.36468 15.9682C2.10004 15.9362 1.83167 15.9574 1.57535 16.0306C1.31903 16.1038 1.07994 16.2275 0.872114 16.3945C0.664292 16.5614 0.491938 16.7682 0.365184 17.0027C0.238431 17.2372 0.159836 17.4947 0.134019 17.76C0.0436871 18.5033 -0.00106332 19.2513 1.91755e-05 20C0.00274848 24.7724 1.71804 29.3853 4.83402 33H2.00002C1.46959 33 0.960878 33.2107 0.585805 33.5858C0.210733 33.9609 1.91755e-05 34.4696 1.91755e-05 35C1.91755e-05 35.5304 0.210733 36.0392 0.585805 36.4142C0.960878 36.7893 1.46959 37 2.00002 37H10C10.3128 36.996 10.6201 36.9173 10.8963 36.7704C11.1725 36.6236 11.4097 36.413 11.588 36.156C11.61 36.126 11.64 36.102 11.662 36.07C11.676 36.05 11.676 36.026 11.688 36.006C11.7833 35.8452 11.8547 35.6714 11.9 35.49C11.93 35.388 11.9514 35.2836 11.964 35.178C11.97 35.118 12 35.064 12 35V27C12 26.4696 11.7893 25.9609 11.4142 25.5858C11.0392 25.2107 10.5304 25 10 25ZM13 8.00003H9.43401C12.3499 5.42205 16.1079 3.99938 20 4.00003C20.5883 3.99874 21.1761 4.03415 21.76 4.10603C22.287 4.16968 22.8177 4.02139 23.2353 3.69376C23.653 3.36613 23.9234 2.88602 23.987 2.35903C24.0507 1.83205 23.9024 1.30136 23.5747 0.88372C23.2471 0.466076 22.767 0.195688 22.24 0.132036C21.4967 0.0426397 20.7487 -0.00144171 20 3.59455e-05C15.2276 0.00276525 10.6147 1.71806 7.00002 4.83403V2.00003C7.00002 1.4696 6.7893 0.960894 6.41423 0.585822C6.03916 0.210749 5.53045 3.59455e-05 5.00002 3.59455e-05C4.46958 3.59455e-05 3.96088 0.210749 3.5858 0.585822C3.21073 0.960894 3.00002 1.4696 3.00002 2.00003V10C3.01236 10.1324 3.0385 10.2631 3.07802 10.39C3.12624 10.6368 3.22202 10.8718 3.36002 11.082L3.38402 11.116C3.51594 11.3079 3.68122 11.4745 3.87202 11.608C3.89402 11.624 3.90602 11.648 3.92802 11.664C3.95602 11.684 3.98802 11.69 4.01802 11.706C4.13187 11.7744 4.25252 11.8307 4.37802 11.874C4.54644 11.9328 4.72203 11.9684 4.90002 11.98C4.93602 11.98 4.96402 12 5.00002 12H13C13.5304 12 14.0392 11.7893 14.4142 11.4142C14.7893 11.0392 15 10.5305 15 10C15 9.4696 14.7893 8.96089 14.4142 8.58582C14.0392 8.21074 13.5304 8.00003 13 8.00003ZM36.92 29.608C36.8716 29.3619 36.7759 29.1276 36.638 28.918L36.616 28.884C36.4835 28.692 36.3175 28.5253 36.126 28.392C36.104 28.376 36.094 28.352 36.07 28.336C36.05 28.322 36.024 28.322 36.002 28.308C35.7482 28.1665 35.47 28.0743 35.182 28.036C35.118 28.03 35.064 28 35 28H27C26.4696 28 25.9609 28.2107 25.5858 28.5858C25.2107 28.9609 25 29.4696 25 30C25 30.5305 25.2107 31.0392 25.5858 31.4142C25.9609 31.7893 26.4696 32 27 32H30.564C27.6487 34.5777 23.8915 36.0004 20 36C19.4117 36.0006 18.8239 35.9646 18.24 35.892C17.713 35.8284 17.1823 35.9767 16.7647 36.3043C16.347 36.6319 16.0767 37.112 16.013 37.639C15.9494 38.166 16.0977 38.6967 16.4253 39.1143C16.7529 39.532 17.233 39.8024 17.76 39.866C18.5033 39.9554 19.2513 40.0002 20 40C24.7724 39.9973 29.3853 38.282 33 35.166V38C33 38.5304 33.2107 39.0392 33.5858 39.4142C33.9609 39.7893 34.4696 40 35 40C35.5304 40 36.0391 39.7893 36.4142 39.4142C36.7893 39.0392 37 38.5304 37 38V30C36.987 29.8676 36.9602 29.7349 36.92 29.608ZM38 7.00003C38.5304 7.00003 39.0391 6.78932 39.4142 6.41425C39.7893 6.03917 40 5.53047 40 5.00003C40 4.4696 39.7893 3.96089 39.4142 3.58582C39.0391 3.21075 38.5304 3.00003 38 3.00003H30C29.8697 3.01276 29.741 3.0389 29.616 3.07803L29.602 3.08003C29.3595 3.12907 29.1287 3.22411 28.922 3.36003L28.882 3.38603C28.6909 3.51817 28.5249 3.68344 28.392 3.87403C28.376 3.89403 28.352 3.90603 28.336 3.92803C28.322 3.94803 28.322 3.97403 28.308 3.99603C28.1655 4.25149 28.0731 4.53186 28.036 4.82203C28.03 4.88203 28 4.93603 28 5.00003V13C28 13.5305 28.2107 14.0392 28.5858 14.4142C28.9609 14.7893 29.4696 15 30 15C30.5304 15 31.0391 14.7893 31.4142 14.4142C31.7893 14.0392 32 13.5305 32 13V9.43403C34.5778 12.35 36.0005 16.108 36 20C36.0002 20.5883 35.9648 21.176 35.894 21.76C35.8307 22.2864 35.9788 22.8163 36.3058 23.2336C36.6327 23.6509 37.1118 23.9215 37.638 23.986C37.719 23.9955 37.8005 24.0002 37.882 24C38.3703 23.9992 38.8413 23.8197 39.2064 23.4955C39.5715 23.1713 39.8054 22.7248 39.864 22.24C39.955 21.4968 40.0004 20.7488 40 20C39.9973 15.2277 38.282 10.6147 35.166 7.00003H38Z" fill="#2EDAB5"/>
</svg>
