<svg width="668" height="668" viewBox="0 0 668 668" fill="current" xmlns="http://www.w3.org/2000/svg">
<path d="M334 467.333C407.637 467.333 467.333 407.637 467.333 334C467.333 260.362 407.637 200.667 334 200.667V467.333Z" />
<path fill-rule="evenodd" clip-rule="evenodd" d="M334 0.666687C149.905 0.666687 0.666687 149.905 0.666687 334C0.666687 518.093 149.905 667.333 334 667.333C518.093 667.333 667.333 518.093 667.333 334C667.333 149.905 518.093 0.666687 334 0.666687ZM334 67.3334V200.667C260.362 200.667 200.667 260.362 200.667 334C200.667 407.637 260.362 467.333 334 467.333V600.667C481.277 600.667 600.667 481.277 600.667 334C600.667 186.724 481.277 67.3334 334 67.3334Z" />
</svg>
