<svg width="244" height="177" viewBox="0 0 244 177" fill="current" xmlns="http://www.w3.org/2000/svg">
<path d="M149.131 1.00057C152.016 2.82458 153.823 4.89212 154.908 8.16335C155.202 12.1343 154.806 15.5024 153.521 19.2439C153.184 20.2925 152.849 21.3421 152.517 22.3922C152.231 23.2923 152.231 23.2923 151.939 24.2106C150.634 28.3881 149.476 32.6116 148.286 36.8233C148.002 37.8242 147.719 38.8251 147.435 39.8259C146.836 41.9398 146.237 44.0539 145.639 46.1681C144.678 49.5665 143.715 52.9643 142.752 56.3622C141.216 61.782 139.681 67.2022 138.147 72.6225C136.442 78.6453 134.737 84.6679 133.031 90.6905C132.528 92.467 132.025 94.2436 131.522 96.0201C129.871 101.849 128.218 107.677 126.563 113.504C125.919 115.769 125.276 118.034 124.632 120.298C124.476 120.849 124.319 121.4 124.158 121.968C122.25 128.687 120.358 135.41 118.491 142.141C117.618 145.284 116.739 148.425 115.858 151.566C115.178 153.991 114.507 156.418 113.844 158.848C113.443 160.311 113.032 161.77 112.619 163.229C112.347 164.2 112.086 165.173 111.826 166.147C110.573 170.516 108.863 173.592 105.022 176.111C101.777 177.241 98.0779 177.362 94.8623 176.077C92.0071 174.297 90.2673 172.191 89.3044 168.917C88.4944 164.973 89.4224 161.555 90.6622 157.815C90.9969 156.761 91.3296 155.706 91.6605 154.651C91.8316 154.106 92.0027 153.56 92.179 152.998C93.0212 150.219 93.7523 147.412 94.4867 144.603C95.7335 139.862 97.0885 135.169 98.5362 130.486C99.6746 126.772 100.697 123.036 101.686 119.279C102.933 114.538 104.288 109.845 105.735 105.162C106.874 101.448 107.897 97.7115 108.885 93.9552C110.133 89.2137 111.487 84.5209 112.934 79.8376C114.073 76.1242 115.096 72.3874 116.084 68.6311C117.332 63.8896 118.686 59.1968 120.134 54.5135C121.272 50.8001 122.295 47.0633 123.283 43.307C124.53 38.5701 125.88 33.8811 127.329 29.203C128.677 24.8132 129.862 20.3848 131.005 15.9368C133.867 4.95132 133.867 4.95132 138.421 1.25091C141.597 -0.397872 145.874 -0.349225 149.131 1.00057Z" />
<path d="M192.686 34.0186C195.472 35.4541 197.502 37.5723 199.69 39.7864C200.369 40.4615 200.369 40.4615 201.062 41.1503C202.294 42.3779 203.522 43.61 204.747 44.8449C205.774 45.8786 206.805 46.9091 207.835 47.9397C210.267 50.3724 212.693 52.8105 215.116 55.2521C217.609 57.7633 220.11 60.2659 222.615 62.7644C224.773 64.917 226.926 67.0748 229.075 69.2366C230.355 70.5245 231.637 71.8106 232.924 73.0918C234.359 74.5218 235.784 75.9623 237.208 77.4039C237.631 77.8222 238.054 78.2405 238.489 78.6714C241.402 81.6455 243.393 84.4973 244 88.6867C243.28 93.8346 240.825 97.0516 237.208 100.615C236.759 101.069 236.31 101.524 235.847 101.993C234.624 103.228 233.395 104.455 232.161 105.68C230.866 106.968 229.579 108.265 228.29 109.561C226.127 111.734 223.957 113.9 221.784 116.063C219.278 118.557 216.781 121.06 214.289 123.569C211.882 125.991 209.47 128.407 207.055 130.82C206.031 131.843 205.009 132.868 203.989 133.895C202.562 135.33 201.126 136.756 199.69 138.181C199.271 138.604 198.853 139.027 198.422 139.462C195.745 142.099 193.202 144.249 189.419 145C185.748 144.95 183.111 144.223 180.428 141.628C177.982 138.918 177.227 137.128 177.095 133.425C177.064 132.81 177.032 132.196 177 131.563C177.674 127.491 181.241 124.487 184.076 121.675C184.425 121.323 184.775 120.972 185.135 120.61C186.278 119.463 187.425 118.32 188.572 117.177C189.37 116.377 190.168 115.577 190.967 114.777C193.058 112.682 195.152 110.589 197.247 108.498C199.388 106.359 201.526 104.217 203.664 102.075C207.853 97.8808 212.045 93.6897 216.239 89.5007C215.567 88.0148 214.862 86.9485 213.708 85.8028C213.403 85.4976 213.099 85.1924 212.785 84.878C212.451 84.5494 212.118 84.2208 211.774 83.8823C211.246 83.3558 211.246 83.3558 210.708 82.8187C209.944 82.0575 209.179 81.2974 208.413 80.5384C207.2 79.3364 205.99 78.1309 204.782 76.9245C201.345 73.4951 197.903 70.0723 194.458 66.6512C192.351 64.5578 190.247 62.4605 188.146 60.3611C187.345 59.5624 186.543 58.7652 185.739 57.9696C184.613 56.8561 183.493 55.7379 182.374 54.6185C182.041 54.2921 181.709 53.9656 181.366 53.6292C178.542 50.7875 177.099 48.3626 177.063 44.2417C177.153 40.9451 177.524 38.699 179.917 36.3621C183.85 33.0668 187.877 32.0093 192.686 34.0186Z" />
<path d="M59.549 34.506C62.6503 35.8437 65.2163 38.4067 66.7283 41.4172C66.8333 42.5553 66.891 43.698 66.923 44.8405C66.9484 45.4546 66.9738 46.0687 67 46.7015C66.4224 50.8468 63.4003 53.7395 60.5033 56.5747C60.1486 56.9281 59.7938 57.2815 59.4283 57.6456C58.2665 58.8012 57.0994 59.9511 55.932 61.1011C55.1208 61.9058 54.3099 62.7109 53.4994 63.5162C51.3739 65.6264 49.2438 67.7318 47.1126 69.8363C44.9353 71.988 42.7624 74.1442 40.5891 76.3C36.3306 80.5229 32.0673 84.7409 27.8008 88.9557C28.4731 90.4297 29.1795 91.489 30.3325 92.6269C30.7898 93.0821 30.7898 93.0821 31.2564 93.5465C31.5899 93.8732 31.9235 94.2 32.2672 94.5366C32.6192 94.8855 32.9712 95.2345 33.3339 95.594C34.098 96.3508 34.8633 97.1063 35.6296 97.8608C36.8426 99.0552 38.0524 100.253 39.2613 101.451C42.2647 104.428 45.2737 107.398 48.2825 110.369C50.8245 112.879 53.3644 115.392 55.9015 117.907C57.0929 119.086 58.2874 120.263 59.482 121.439C60.2134 122.163 60.9446 122.888 61.6757 123.612C62.0082 123.938 62.3407 124.264 62.6833 124.599C66.5716 128.469 66.5716 128.469 66.9351 131.503C66.9311 132.116 66.9271 132.73 66.923 133.362C66.927 133.974 66.931 134.586 66.9351 135.217C66.5184 138.832 64.7556 140.745 62.0408 142.963C59.6507 144.753 57.5966 144.896 54.6831 145C50.2434 144.271 47.3966 141.32 44.3546 138.273C43.6753 137.605 43.6753 137.605 42.9822 136.923C41.7494 135.707 40.5214 134.488 39.2958 133.265C38.2684 132.241 37.238 131.22 36.2076 130.199C33.7749 127.789 31.3478 125.373 28.924 122.954C26.4316 120.466 23.9299 117.988 21.4234 115.515C19.2639 113.383 17.1105 111.246 14.9619 109.103C13.682 107.827 12.3999 106.553 11.1118 105.286C9.67428 103.87 8.2497 102.442 6.82601 101.013C6.40319 100.6 5.98038 100.187 5.54475 99.7611C2.4605 96.6332 0.70274 93.5672 0 89.2141C0.796549 84.2798 3.89236 80.8612 7.35632 77.4629C7.80059 77.0169 8.24485 76.5709 8.70258 76.1114C9.91077 74.9014 11.1245 73.6973 12.3414 72.4961C13.6202 71.2315 14.8924 69.9604 16.1656 68.6902C18.3029 66.5601 20.4453 64.4353 22.591 62.3137C25.0649 59.8674 27.5304 57.4129 29.9915 54.9538C32.3692 52.5785 34.7527 50.2091 37.139 47.8423C38.1501 46.8392 39.1591 45.8341 40.1665 44.8274C41.5752 43.4203 42.9924 42.0219 44.4105 40.6242C45.0299 40.0025 45.0299 40.0025 45.6618 39.3682C49.6691 35.4462 53.7952 32.8546 59.549 34.506Z" />
</svg>
