<svg width="24" height="24" viewBox="0 0 24 24" fill="current" xmlns="http://www.w3.org/2000/svg">
<path fill-rule="evenodd" clip-rule="evenodd" d="M5 11C5 10.4477 5.44772 10 6 10H10C10.5523 10 11 10.4477 11 11C11 11.5523 10.5523 12 10 12H6C5.44772 12 5 11.5523 5 11Z" />
<path fill-rule="evenodd" clip-rule="evenodd" d="M8 8C8.55228 8 9 8.44772 9 9V13C9 13.5523 8.55228 14 8 14C7.44772 14 7 13.5523 7 13V9C7 8.44772 7.44772 8 8 8Z" />
<path fill-rule="evenodd" clip-rule="evenodd" d="M14 12C14 11.4477 14.4477 11 15 11H15.01C15.5623 11 16.01 11.4477 16.01 12C16.01 12.5523 15.5623 13 15.01 13H15C14.4477 13 14 12.5523 14 12Z" />
<path fill-rule="evenodd" clip-rule="evenodd" d="M17 10C17 9.44772 17.4477 9 18 9H18.01C18.5623 9 19.01 9.44772 19.01 10C19.01 10.5523 18.5623 11 18.01 11H18C17.4477 11 17 10.5523 17 10Z" />
<path fill-rule="evenodd" clip-rule="evenodd" d="M3.96061 9.1745L3.9577 9.20117C3.95679 9.20905 3.9563 9.21384 3.95503 9.22614C3.95422 9.23399 3.9531 9.2449 3.95135 9.26162C3.94827 9.29114 3.94326 9.33824 3.93606 9.39307C3.83058 10.2714 3.2 15.5801 3.2 17.1C3.2 17.3917 3.31589 17.6715 3.52218 17.8778C3.72847 18.0841 4.00826 18.2 4.3 18.2C4.38812 18.2 4.42824 18.1895 4.43728 18.1869C4.44551 18.1846 4.45457 18.1816 4.47436 18.1698C4.49872 18.1551 4.54444 18.1239 4.62334 18.0543C4.70937 17.9784 4.79882 17.8899 4.94437 17.7444L6.49953 16.1892C6.49961 16.1891 6.49945 16.1893 6.49953 16.1892C7.32447 15.3641 8.44358 14.9002 9.61033 14.9H14.3892C15.5559 14.9002 16.6753 15.3639 17.5002 16.189C17.5003 16.189 17.5002 16.1889 17.5002 16.189L19.0556 17.7444C19.2012 17.8899 19.2906 17.9784 19.3767 18.0543C19.4556 18.1239 19.5013 18.1551 19.5256 18.1698C19.5454 18.1816 19.5545 18.1846 19.5627 18.1869C19.5718 18.1895 19.6119 18.2 19.7 18.2C19.9917 18.2 20.2715 18.0841 20.4778 17.8778C20.6841 17.6715 20.8 17.3917 20.8 17.1C20.8 15.5801 20.1704 10.2792 20.0642 9.39501C20.0567 9.33871 20.0516 9.29048 20.0486 9.26217C20.0469 9.24499 20.0457 9.23422 20.045 9.22691C20.0438 9.21581 20.0435 9.21269 20.0429 9.20715L20.0393 9.17505C19.9837 8.63347 19.7292 8.13177 19.325 7.76696C18.921 7.40228 18.3962 7.20028 17.852 7.2H6.14851C6.14834 7.2 6.14868 7.2 6.14851 7.2C5.60435 7.20025 5.07907 7.40217 4.67508 7.76676C4.27097 8.13145 4.01641 8.63302 3.96061 9.1745ZM6.148 5H17.852C18.9409 5.00028 19.991 5.4043 20.7992 6.13392C21.6075 6.86354 22.1165 7.86694 22.2278 8.9501C22.2304 8.97183 22.2326 8.9934 22.2348 9.01487C22.2383 9.04882 22.2418 9.08251 22.2465 9.1162C22.3356 9.8576 23 15.4005 23 17.1C23 17.9752 22.6523 18.8146 22.0335 19.4335C21.4146 20.0523 20.5752 20.4 19.7 20.4C18.6 20.4 18.05 19.85 17.5 19.3L15.9446 17.7446C15.5321 17.332 14.9726 17.1001 14.3892 17.1H9.6108C9.02737 17.1001 8.46788 17.332 8.0554 17.7446L6.5 19.3C5.95 19.85 5.4 20.4 4.3 20.4C3.42479 20.4 2.58542 20.0523 1.96655 19.4335C1.34768 18.8146 1 17.9752 1 17.1C1 15.4016 1.6644 9.8576 1.7535 9.1162C1.7583 9.08125 1.76181 9.04715 1.76538 9.01258C1.76754 8.99166 1.76971 8.97056 1.7722 8.949C1.88379 7.86604 2.39291 6.86291 3.20114 6.13351C4.00937 5.40411 5.05931 5.00025 6.148 5Z" />
</svg>
