<svg width="18" height="18" viewBox="0 0 18 18" fill="current" xmlns="http://www.w3.org/2000/svg">
<g clip-path="url(#clip0_233_24)">
<path fill-rule="evenodd" clip-rule="evenodd" d="M2.25 3C2.25 2.58921 2.58921 2.25 3 2.25H10.5C10.9108 2.25 11.25 2.58921 11.25 3C11.25 3.41421 11.5858 3.75 12 3.75C12.4142 3.75 12.75 3.41421 12.75 3C12.75 1.76079 11.7392 0.75 10.5 0.75H3C1.76079 0.75 0.75 1.76079 0.75 3V10.5C0.75 11.7392 1.76079 12.75 3 12.75C3.41421 12.75 3.75 12.4142 3.75 12C3.75 11.5858 3.41421 11.25 3 11.25C2.58921 11.25 2.25 10.9108 2.25 10.5V3ZM6.75 7.5C6.75 7.08579 7.08579 6.75 7.5 6.75H15C15.4142 6.75 15.75 7.08579 15.75 7.5V15C15.75 15.4142 15.4142 15.75 15 15.75H7.5C7.08579 15.75 6.75 15.4142 6.75 15V7.5ZM7.5 5.25C6.25736 5.25 5.25 6.25736 5.25 7.5V15C5.25 16.2426 6.25736 17.25 7.5 17.25H15C16.2426 17.25 17.25 16.2426 17.25 15V7.5C17.25 6.25736 16.2426 5.25 15 5.25H7.5Z"/>
</g>
<defs>
<clipPath id="clip0_233_24">
<rect width="18" height="18" />
</clipPath>
</defs>
</svg>
