<svg width="21" height="20" viewBox="0 0 21 20" fill="current" xmlns="http://www.w3.org/2000/svg">
<path d="M6.00416 0H14.4042C17.6042 0 20.2042 2.6 20.2042 5.8V14.2C20.2042 15.7383 19.5931 17.2135 18.5054 18.3012C17.4177 19.3889 15.9424 20 14.4042 20H6.00416C2.80416 20 0.204163 17.4 0.204163 14.2V5.8C0.204163 4.26174 0.815232 2.78649 1.90294 1.69878C2.99065 0.61107 4.46591 0 6.00416 0ZM5.80416 2C4.84938 2 3.93371 2.37928 3.25858 3.05442C2.58345 3.72955 2.20416 4.64522 2.20416 5.6V14.4C2.20416 16.39 3.81416 18 5.80416 18H14.6042C15.5589 18 16.4746 17.6207 17.1497 16.9456C17.8249 16.2705 18.2042 15.3548 18.2042 14.4V5.6C18.2042 3.61 16.5942 2 14.6042 2H5.80416ZM15.4542 3.5C15.7857 3.5 16.1036 3.6317 16.338 3.86612C16.5725 4.10054 16.7042 4.41848 16.7042 4.75C16.7042 5.08152 16.5725 5.39946 16.338 5.63388C16.1036 5.8683 15.7857 6 15.4542 6C15.1226 6 14.8047 5.8683 14.5703 5.63388C14.3359 5.39946 14.2042 5.08152 14.2042 4.75C14.2042 4.41848 14.3359 4.10054 14.5703 3.86612C14.8047 3.6317 15.1226 3.5 15.4542 3.5ZM10.2042 5C11.5302 5 12.802 5.52678 13.7397 6.46447C14.6774 7.40215 15.2042 8.67392 15.2042 10C15.2042 11.3261 14.6774 12.5979 13.7397 13.5355C12.802 14.4732 11.5302 15 10.2042 15C8.87808 15 7.60631 14.4732 6.66863 13.5355C5.73095 12.5979 5.20416 11.3261 5.20416 10C5.20416 8.67392 5.73095 7.40215 6.66863 6.46447C7.60631 5.52678 8.87808 5 10.2042 5ZM10.2042 7C9.40851 7 8.64545 7.31607 8.08284 7.87868C7.52023 8.44129 7.20416 9.20435 7.20416 10C7.20416 10.7956 7.52023 11.5587 8.08284 12.1213C8.64545 12.6839 9.40851 13 10.2042 13C10.9998 13 11.7629 12.6839 12.3255 12.1213C12.8881 11.5587 13.2042 10.7956 13.2042 10C13.2042 9.20435 12.8881 8.44129 12.3255 7.87868C11.7629 7.31607 10.9998 7 10.2042 7Z"/>
</svg>
