<svg width="86" height="86" viewBox="0 0 86 86" fill="current" xmlns="http://www.w3.org/2000/svg">
<path d="M75.2498 17.9167H10.7498C9.79948 17.9167 8.88804 18.2943 8.21604 18.9663C7.54403 19.6383 7.1665 20.5497 7.1665 21.5001V35.8334H10.3664C13.9354 35.8334 17.2464 38.2737 17.8198 41.7961C17.9944 42.8246 17.9425 43.8789 17.6677 44.8853C17.3929 45.8918 16.9017 46.8261 16.2286 47.6231C15.5554 48.4202 14.7164 49.0607 13.7701 49.5C12.8238 49.9393 11.7931 50.1669 10.7498 50.1667H7.1665V64.5001C7.1665 65.4504 7.54403 66.3619 8.21604 67.0339C8.88804 67.7059 9.79948 68.0834 10.7498 68.0834H75.2498C76.2002 68.0834 77.1116 67.7059 77.7836 67.0339C78.4556 66.3619 78.8332 65.4504 78.8332 64.5001V50.1667H75.2498C74.2066 50.1669 73.1758 49.9393 72.2296 49.5C71.2833 49.0607 70.4443 48.4202 69.7711 47.6231C69.0979 46.8261 68.6068 45.8918 68.332 44.8853C68.0572 43.8789 68.0053 42.8246 68.1799 41.7961C68.7533 38.2737 72.0643 35.8334 75.6333 35.8334H78.8332V21.5001C78.8332 20.5497 78.4556 19.6383 77.7836 18.9663C77.1116 18.2943 76.2002 17.9167 75.2498 17.9167ZM32.2498 32.2501C33.2002 32.2501 34.1116 32.6276 34.7836 33.2996C35.4556 33.9716 35.8332 34.8831 35.8332 35.8334C35.8332 36.7838 35.4556 37.6952 34.7836 38.3672C34.1116 39.0392 33.2002 39.4167 32.2498 39.4167C31.2995 39.4167 30.388 39.0392 29.716 38.3672C29.044 37.6952 28.6665 36.7838 28.6665 35.8334C28.6665 34.8831 29.044 33.9716 29.716 33.2996C30.388 32.6276 31.2995 32.2501 32.2498 32.2501ZM29.3832 55.1834L50.8832 26.5167L56.6165 30.8167L35.1165 59.4834L29.3832 55.1834ZM53.7498 53.7501C52.7995 53.7501 51.888 53.3726 51.216 52.7006C50.544 52.0285 50.1665 51.1171 50.1665 50.1667C50.1665 49.2164 50.544 48.305 51.216 47.6329C51.888 46.9609 52.7995 46.5834 53.7498 46.5834C54.7002 46.5834 55.6116 46.9609 56.2836 47.6329C56.9556 48.305 57.3332 49.2164 57.3332 50.1667C57.3332 51.1171 56.9556 52.0285 56.2836 52.7006C55.6116 53.3726 54.7002 53.7501 53.7498 53.7501Z" />
<defs>
<linearGradient id="paint0_linear_102_1421" x1="42.9595" y1="43.0001" x2="78.8332" y2="43.0001" gradientUnits="userSpaceOnUse">
<stop stop-color="#42bc32"/>
<stop offset="1" stop-color="#FF3B57"/>
</linearGradient>

</defs>
</svg>
