<svg width="15" height="16" viewBox="0 0 15 16" fill="none" xmlns="http://www.w3.org/2000/svg">
<g clip-path="url(#clip0_213_555)">
<path fill-rule="evenodd" clip-rule="evenodd" d="M6.5647 10.4691C6.24543 10.4691 6.08536 10.2243 5.91606 10.055L3.77477 7.91437C3.61278 7.75243 3.33904 7.53872 3.3213 7.27557C3.30169 6.98511 3.57263 6.78828 3.72791 6.63312C4.26946 6.09174 4.37017 5.97831 4.97833 6.58627L6.53352 8.12535C6.68728 8.08435 8.29233 6.41397 8.40134 6.30505L9.77679 4.93004C10.0989 4.60802 10.079 4.5316 10.4724 4.5316C10.6848 4.5316 10.9016 4.82 11.0272 4.94566C11.275 5.19332 11.4414 5.2611 11.4414 5.59409C11.4414 5.89558 11.1031 6.1354 10.9334 6.30505L7.27602 9.96127C7.11044 10.1268 6.85751 10.4691 6.56483 10.4691H6.5647ZM5.34058e-05 5.25034C5.34058e-05 6.7108 0.112658 8.17665 0.412716 9.36905C0.626692 10.2194 0.866193 11.0263 1.35038 11.7755C1.68248 12.2895 1.82772 12.438 2.18368 12.88L2.86842 13.6017C3.79232 14.415 4.36964 14.8406 5.50187 15.4067C5.78404 15.5478 6.80055 16.0004 7.15863 16.0004C7.50283 16.0004 8.51295 15.558 8.79459 15.4171C9.05065 15.2891 9.27253 15.1799 9.50911 15.0377L10.5097 14.3817C11.0004 14.0495 11.7522 13.3316 12.1196 12.8973C12.434 12.5258 12.6848 12.2049 12.9544 11.7944C13.1784 11.4534 13.3532 11.0696 13.5047 10.6883C13.5547 10.5626 13.6179 10.4024 13.6573 10.2784C14.4678 7.73296 14.4048 5.00673 14.1304 2.34336C14.0754 1.80896 13.7305 1.80112 13.2721 1.67021L10.2402 0.826145C9.91353 0.734044 7.37254 0.000488281 7.15863 0.000488281C6.92399 0.000488281 0.664448 1.75979 0.49481 1.8388C0.123759 2.0115 0.172351 2.5277 0.12017 3.02675L0.0359487 4.0988C0.0210588 4.23164 0.0387405 4.3672 0.0315615 4.50063L0.000186351 5.25047L5.34058e-05 5.25034Z" fill="url(#paint0_linear_213_555)"/>
</g>
<defs>
<linearGradient id="paint0_linear_213_555" x1="9.92663" y1="8.00045" x2="13.4771" y2="8.00045" gradientUnits="userSpaceOnUse">
<stop stop-color="#0185FF"/>
<stop offset="1" stop-color="#1976D2"/>
</linearGradient>
<clipPath id="clip0_213_555">
<rect width="14.3158" height="16" fill="white"/>
</clipPath>
</defs>
</svg>
