<svg width="24" height="24" viewBox="0 0 24 24" fill="current" xmlns="http://www.w3.org/2000/svg">
<path d="M15.005 2.003C15.7073 2.00291 16.3972 2.18773 17.0054 2.53886C17.6136 2.88999 18.1187 3.39507 18.4698 4.00329C18.8208 4.61152 19.0056 5.30146 19.0055 6.00374C19.0054 6.70603 18.8203 7.3959 18.469 8.004L23.005 8.003V10.003H21.005V20.003C21.005 20.2682 20.8996 20.5226 20.7121 20.7101C20.5246 20.8976 20.2702 21.003 20.005 21.003H4.005C3.73979 21.003 3.48543 20.8976 3.2979 20.7101C3.11036 20.5226 3.005 20.2682 3.005 20.003V10.003H1.005V8.003L5.541 8.004C5.04369 7.14474 4.88369 6.13126 5.09211 5.16059C5.30052 4.18992 5.86246 3.33144 6.66867 2.75207C7.47487 2.17271 8.46772 1.91385 9.45418 2.02584C10.4406 2.13782 11.3502 2.61265 12.006 3.358C12.3805 2.93151 12.8418 2.58997 13.359 2.35628C13.8762 2.12259 14.4374 2.00214 15.005 2.003ZM11.005 10.003H5.005V19.003H11.005V10.003ZM19.005 10.003H13.005V19.003H19.005V10.003ZM9.005 4.003C8.48839 4.00422 7.99228 4.2053 7.62061 4.56413C7.24894 4.92295 7.03053 5.41168 7.01114 5.92793C6.99176 6.44419 7.17289 6.94792 7.5166 7.33361C7.86031 7.7193 8.33993 7.95703 8.855 7.997L9.005 8.003H11.005V6.003C11.005 5.52506 10.8339 5.06291 10.5226 4.70025C10.2113 4.3376 9.78043 4.09841 9.308 4.026L9.15401 4.008L9.004 4.003H9.005ZM15.005 4.003C14.5004 4.00284 14.0144 4.1934 13.6445 4.53649C13.2745 4.87959 13.0478 5.34984 13.01 5.853L13.005 6.003V8.003H15.005C15.5094 8.00291 15.9951 7.81223 16.3649 7.46916C16.7347 7.12609 16.9612 6.65598 16.999 6.153L17.005 6.003C17.005 5.47256 16.7943 4.96386 16.4192 4.58878C16.0441 4.21371 15.5354 4.003 15.005 4.003Z" />
</svg>
