<svg width="24" height="24" viewBox="0 0 24 24" fill="current" xmlns="http://www.w3.org/2000/svg">
<path fill-rule="evenodd" clip-rule="evenodd" d="M3.89289 1.89289C4.47445 1.31134 5.22644 1 6 1H14.5C14.7652 1 15.0196 1.10536 15.2071 1.29289L20.7071 6.79289C20.8946 6.98043 21 7.23478 21 7.5V20C21 20.7736 20.6887 21.5256 20.1071 22.1071C19.5256 22.6887 18.7736 23 18 23H16C15.4477 23 15 22.5523 15 22C15 21.4477 15.4477 21 16 21H18C18.2264 21 18.4744 20.9113 18.6929 20.6929C18.9113 20.4744 19 20.2264 19 20V7.91421L14.0858 3H6C5.77356 3 5.52555 3.08866 5.30711 3.30711C5.08866 3.52555 5 3.77356 5 4V7C5 7.55228 4.55228 8 4 8C3.44772 8 3 7.55228 3 7V4C3 3.22644 3.31134 2.47445 3.89289 1.89289Z" />
<path fill-rule="evenodd" clip-rule="evenodd" d="M14 1C14.5523 1 15 1.44772 15 2V7H20C20.5523 7 21 7.44772 21 8C21 8.55228 20.5523 9 20 9H14C13.4477 9 13 8.55228 13 8V2C13 1.44772 13.4477 1 14 1Z" />
<path fill-rule="evenodd" clip-rule="evenodd" d="M8 11C5.23858 11 3 13.2386 3 16C3 18.7614 5.23858 21 8 21C10.7614 21 13 18.7614 13 16C13 13.2386 10.7614 11 8 11ZM1 16C1 12.134 4.13401 9 8 9C11.866 9 15 12.134 15 16C15 19.866 11.866 23 8 23C4.13401 23 1 19.866 1 16Z" />
<path fill-rule="evenodd" clip-rule="evenodd" d="M8 13C8.55228 13 9 13.4477 9 14V15.7816L10.1402 16.7318C10.5645 17.0853 10.6218 17.7159 10.2682 18.1402C9.91466 18.5645 9.28409 18.6218 8.85982 18.2682L7.35982 17.0182C7.13182 16.8282 7 16.5468 7 16.25V14C7 13.4477 7.44772 13 8 13Z" />
</svg>
