<svg width="402" height="660" viewBox="0 0 402 660" fill="current" xmlns="http://www.w3.org/2000/svg">
<path d="M80.2752 658.812C94.7752 657.412 108.075 651.512 119.875 641.412C123.875 637.912 185.575 576.512 257.075 504.812C354.975 406.612 387.975 373.012 390.475 368.712C405.175 343.312 405.175 316.512 390.475 291.112C387.975 286.812 354.975 253.212 257.075 155.012C185.575 83.3119 123.675 21.8119 119.575 18.2119C106.075 6.51189 90.1753 0.711887 72.0753 0.711885C59.6753 0.711884 50.4753 2.81188 40.0753 7.91188C21.4753 17.1119 8.87526 32.1119 2.47526 52.9119C0.575263 59.0119 0.0752626 62.7119 0.0752618 72.4119C0.0752606 86.5119 1.67526 93.5119 7.67526 105.912L11.7753 114.412L119.475 222.212L227.075 329.912L119.475 437.712L11.7752 545.412L7.67522 553.912C1.67522 566.312 0.075218 573.312 0.0752168 587.412C0.0752159 597.112 0.575216 600.812 2.47521 606.912C13.2752 641.912 43.9752 662.312 80.2752 658.812Z" />
</svg>
