<svg width="24" height="24" viewBox="0 0 24 24" fill="none" xmlns="http://www.w3.org/2000/svg">
<path d="M12 17.1771V18.9086M12 8.58857V10.2M12 23.1257C18 23.1257 22.2857 21 22.2857 16.2686C22.2857 11.1257 19.7143 7.69714 14.5714 5.12571L16.5943 2.52C16.697 2.34904 16.7528 2.15394 16.7559 1.95449C16.7589 1.75504 16.7092 1.55832 16.6117 1.38428C16.5143 1.21024 16.3725 1.06506 16.2009 0.963452C16.0292 0.861846 15.8337 0.807429 15.6343 0.805715H8.36571C8.16624 0.807429 7.97077 0.861846 7.79912 0.963452C7.62746 1.06506 7.48571 1.21024 7.38825 1.38428C7.29079 1.55832 7.24107 1.75504 7.24413 1.95449C7.2472 2.15394 7.30294 2.34904 7.40571 2.52L9.42856 5.14286C4.28571 7.73143 1.71428 11.16 1.71428 16.3029C1.71428 21 5.99999 23.1257 12 23.1257Z" stroke="#1A1A1A" stroke-linecap="round" stroke-linejoin="round"/>
<path d="M10.2857 16.3886C10.4949 16.6369 10.7581 16.8339 11.0553 16.9647C11.3525 17.0954 11.6756 17.1564 12 17.1429C12.4958 17.1767 12.9853 17.0169 13.3658 16.6972C13.7462 16.3775 13.9879 15.9228 14.04 15.4286C13.9879 14.9344 13.7462 14.4796 13.3658 14.1599C12.9853 13.8402 12.4958 13.6805 12 13.7143C11.5042 13.7481 11.0146 13.5883 10.6342 13.2686C10.2538 12.9489 10.0121 12.4942 9.95999 12C10.0079 11.5041 10.2484 11.0467 10.6298 10.7262C11.0113 10.4056 11.5032 10.2475 12 10.2857C12.3187 10.2662 12.6377 10.3176 12.9341 10.4362C13.2305 10.5547 13.497 10.7375 13.7143 10.9714" stroke="#1A1A1A" stroke-linecap="round" stroke-linejoin="round"/>
</svg>
