<svg width="25" height="18" viewBox="0 0 25 18" fill="current" xmlns="http://www.w3.org/2000/svg">
<path d="M0.927826 3.234V15.6821C0.927826 16.4054 1.33366 17.0885 2.01272 17.3416C5.50848 18.6475 9.00424 17.7555 12.5 16.8635C15.7065 16.0478 18.9129 15.2281 22.1153 16.104C23.0395 16.3572 24.0722 15.7223 24.0722 14.762V2.31787C24.0722 1.59461 23.6663 0.911535 22.9873 0.658393C19.4915 -0.647494 15.9958 0.244527 12.5 1.13655C9.29354 1.95223 6.08709 2.7679 2.88465 1.89195C1.95646 1.63881 0.927826 2.27368 0.927826 3.234ZM12.5 12.8574C10.724 12.8574 9.28551 11.1296 9.28551 9C9.28551 6.8704 10.724 5.14261 12.5 5.14261C14.276 5.14261 15.7145 6.8704 15.7145 9C15.7145 11.1296 14.276 12.8574 12.5 12.8574ZM3.49942 12.8574C4.91781 12.8574 6.07101 14.0106 6.07101 15.429H3.49942V12.8574ZM6.07101 4.49971C6.07101 5.91811 4.91781 7.0713 3.49942 7.0713V4.49971H6.07101ZM21.5006 10.9287V13.5003H18.929C18.929 12.0819 20.0822 10.9287 21.5006 10.9287ZM18.929 2.57102H21.5006V5.14261C20.0822 5.14261 18.929 3.98941 18.929 2.57102Z" />
</svg>
