<svg width="24" height="24" viewBox="0 0 24 24" fill="current" xmlns="http://www.w3.org/2000/svg">
<path fill-rule="evenodd" clip-rule="evenodd" d="M5.16795 2.4453C5.35342 2.1671 5.66565 2 6 2H18C18.3344 2 18.6466 2.1671 18.8321 2.4453L22.8321 8.4453C23.0697 8.8018 23.0539 9.2701 22.7926 9.60971L12.7926 22.6097C12.6033 22.8558 12.3105 23 12 23C11.6895 23 11.3967 22.8558 11.2074 22.6097L1.20738 9.60971C0.946139 9.2701 0.930283 8.8018 1.16795 8.4453L5.16795 2.4453ZM6.53519 4L3.22961 8.95837L12 20.3599L20.7704 8.95837L17.4648 4H6.53519Z" />
<path fill-rule="evenodd" clip-rule="evenodd" d="M11.8944 3.44719C11.9629 3.31026 11.997 3.16514 12 3.02163C12.003 3.16514 12.0371 3.31026 12.1056 3.44719L14.382 8H9.61802L11.8944 3.44719ZM7.38195 8H2C1.44772 8 1 8.44772 1 9C1 9.55228 1.44772 10 2 10H7.26143L11.0442 22.2941C11.1733 22.7137 11.561 23 12 23C12.439 23 12.8267 22.7137 12.9558 22.2941L16.7386 10H22C22.5523 10 23 9.55228 23 9C23 8.44772 22.5523 8 22 8H16.618L13.8944 2.55276C13.6474 2.05878 13.0468 1.85856 12.5528 2.10555C12.209 2.27743 12.0075 2.62061 12 2.97991C11.9925 2.62061 11.791 2.27743 11.4472 2.10555C10.9532 1.85856 10.3526 2.05878 10.1056 2.55276L7.38195 8ZM14.646 10L12 18.5996L9.35397 10H14.646Z"/>
</svg>
