<svg width="20" height="18" viewBox="0 0 20 18" fill="current" xmlns="http://www.w3.org/2000/svg">
<path d="M14 5V2H6V5H4V0H16V5H14ZM16 9.5C16.2833 9.5 16.5208 9.40417 16.7125 9.2125C16.9042 9.02083 17 8.78333 17 8.5C17 8.21667 16.9042 7.97917 16.7125 7.7875C16.5208 7.59583 16.2833 7.5 16 7.5C15.7167 7.5 15.4792 7.59583 15.2875 7.7875C15.0958 7.97917 15 8.21667 15 8.5C15 8.78333 15.0958 9.02083 15.2875 9.2125C15.4792 9.40417 15.7167 9.5 16 9.5ZM14 16V12H6V16H14ZM16 18H4V14H0V8C0 7.15 0.291667 6.4375 0.875 5.8625C1.45833 5.2875 2.16667 5 3 5H17C17.85 5 18.5625 5.2875 19.1375 5.8625C19.7125 6.4375 20 7.15 20 8V14H16V18ZM18 12V8C18 7.71667 17.9042 7.47917 17.7125 7.2875C17.5208 7.09583 17.2833 7 17 7H3C2.71667 7 2.47917 7.09583 2.2875 7.2875C2.09583 7.47917 2 7.71667 2 8V12H4V10H16V12H18Z"/>
</svg>
