<svg width="20" height="21" viewBox="0 0 20 21" fill="current" xmlns="http://www.w3.org/2000/svg">
<path d="M6.625 7H2.125C1.85978 7 1.60543 6.89464 1.41789 6.70711C1.23036 6.51957 1.125 6.26522 1.125 6V1.5C1.125 1.23478 1.23036 0.98043 1.41789 0.792893C1.60543 0.605357 1.85978 0.5 2.125 0.5C2.39022 0.5 2.64457 0.605357 2.83211 0.792893C3.01964 0.98043 3.125 1.23478 3.125 1.5V5H6.625C6.89022 5 7.14457 5.10536 7.33211 5.29289C7.51964 5.48043 7.625 5.73478 7.625 6C7.625 6.26522 7.51964 6.51957 7.33211 6.70711C7.14457 6.89464 6.89022 7 6.625 7Z" />
<path d="M19.0004 11.5C18.7352 11.5 18.4808 11.3946 18.2933 11.2071C18.1057 11.0195 18.0004 10.7652 18.0004 10.5C18.0012 8.73952 17.4208 7.02803 16.3495 5.63109C15.2781 4.23415 13.7757 3.22987 12.0752 2.7741C10.3748 2.31833 8.57146 2.43656 6.94507 3.11043C5.31869 3.78429 3.96019 4.97613 3.08039 6.50098C2.94752 6.73052 2.7289 6.89788 2.47263 6.96624C2.21636 7.0346 1.94344 6.99835 1.71389 6.86548C1.48435 6.73261 1.31699 6.51399 1.24863 6.25772C1.18027 6.00145 1.21652 5.72852 1.34939 5.49898C2.44965 3.59322 4.14808 2.10383 6.1812 1.26187C8.21433 0.419908 10.4685 0.27245 12.594 0.842368C14.7195 1.41229 16.5974 2.66772 17.9366 4.41391C19.2757 6.16009 20.0012 8.29941 20.0004 10.5C20.0004 10.7652 19.895 11.0195 19.7075 11.2071C19.52 11.3946 19.2656 11.5 19.0004 11.5ZM17.8754 20.5C17.6102 20.5 17.3558 20.3946 17.1683 20.2071C16.9807 20.0196 16.8754 19.7652 16.8754 19.5V16H13.3754C13.1102 16 12.8558 15.8946 12.6683 15.7071C12.4807 15.5196 12.3754 15.2652 12.3754 15C12.3754 14.7348 12.4807 14.4804 12.6683 14.2929C12.8558 14.1053 13.1102 14 13.3754 14H17.8754C18.1406 14 18.395 14.1053 18.5825 14.2929C18.77 14.4804 18.8754 14.7348 18.8754 15V19.5C18.8754 19.7652 18.77 20.0196 18.5825 20.2071C18.395 20.3946 18.1406 20.5 17.8754 20.5Z" />
<path d="M10 20.5C7.34881 20.4968 4.80712 19.4422 2.93244 17.5676C1.05776 15.6929 0.00317572 13.1512 0 10.5C0 10.2348 0.105357 9.98043 0.292893 9.79289C0.48043 9.60536 0.734784 9.5 1 9.5C1.26522 9.5 1.51957 9.60536 1.70711 9.79289C1.89464 9.98043 2 10.2348 2 10.5C1.99924 12.2605 2.57956 13.972 3.65091 15.3689C4.72225 16.7658 6.22472 17.7701 7.92516 18.2259C9.6256 18.6816 11.4289 18.5634 13.0553 17.8896C14.6817 17.2157 16.0402 16.0239 16.92 14.499C16.9858 14.3853 17.0733 14.2858 17.1776 14.2059C17.2819 14.1261 17.4009 14.0676 17.5278 14.0337C17.6547 13.9999 17.787 13.9914 17.9172 14.0087C18.0473 14.0259 18.1728 14.0687 18.2865 14.1345C18.4002 14.2003 18.4997 14.2878 18.5796 14.3921C18.6594 14.4964 18.7179 14.6154 18.7518 14.7423C18.7856 14.8692 18.7941 15.0015 18.7768 15.1317C18.7596 15.2618 18.7168 15.3873 18.651 15.501C17.7715 17.0175 16.51 18.277 14.9921 19.1541C13.4743 20.0312 11.7531 20.4953 10 20.5Z" />
</svg>
