<svg width="18" height="19" viewBox="0 0 18 19" fill="current" xmlns="http://www.w3.org/2000/svg">
<path fill-rule="evenodd" clip-rule="evenodd" d="M12.273 7.04546C12.273 7.91344 11.9282 8.74587 11.3144 9.35962C10.7007 9.97338 9.86825 10.3182 9.00027 10.3182C8.13229 10.3182 7.29985 9.97338 6.6861 9.35962C6.07234 8.74587 5.72754 7.91344 5.72754 7.04546C5.72754 6.17747 6.07234 5.34504 6.6861 4.73129C7.29985 4.11753 8.13229 3.77273 9.00027 3.77273C9.86825 3.77273 10.7007 4.11753 11.3144 4.73129C11.9282 5.34504 12.273 6.17747 12.273 7.04546ZM10.6366 7.04546C10.6366 7.47945 10.4642 7.89566 10.1573 8.20254C9.85047 8.50942 9.43426 8.68182 9.00027 8.68182C8.56628 8.68182 8.15006 8.50942 7.84318 8.20254C7.53631 7.89566 7.3639 7.47945 7.3639 7.04546C7.3639 6.61146 7.53631 6.19525 7.84318 5.88837C8.15006 5.58149 8.56628 5.40909 9.00027 5.40909C9.43426 5.40909 9.85047 5.58149 10.1573 5.88837C10.4642 6.19525 10.6366 6.61146 10.6366 7.04546Z" />
<path fill-rule="evenodd" clip-rule="evenodd" d="M9 0.5C4.02955 0.5 0 4.52955 0 9.5C0 14.4705 4.02955 18.5 9 18.5C13.9705 18.5 18 14.4705 18 9.5C18 4.52955 13.9705 0.5 9 0.5ZM1.63636 9.5C1.63636 11.21 2.21973 12.7842 3.19745 14.0344C3.8841 13.1326 4.76992 12.4019 5.78572 11.8992C6.80152 11.3964 7.91979 11.1354 9.05318 11.1364C10.1719 11.1353 11.2761 11.3896 12.2817 11.8799C13.2872 12.3702 14.1676 13.0836 14.8557 13.9656C15.5646 13.0359 16.042 11.9506 16.2482 10.7998C16.4544 9.64888 16.3836 8.46544 16.0417 7.34735C15.6997 6.22926 15.0965 5.20868 14.2818 4.37003C13.4671 3.53139 12.4644 2.89879 11.3567 2.5246C10.249 2.1504 9.06807 2.04536 7.9117 2.21816C6.75534 2.39096 5.65674 2.83664 4.70681 3.51832C3.75688 4.19999 2.98294 5.09808 2.44901 6.13825C1.91508 7.17843 1.63651 8.33079 1.63636 9.5ZM9 16.8636C7.3096 16.8662 5.67022 16.2846 4.35927 15.2175C4.88694 14.4621 5.58928 13.8453 6.40652 13.4197C7.22377 12.994 8.13174 12.7721 9.05318 12.7727C9.96313 12.772 10.8601 12.9884 11.6697 13.4039C12.4792 13.8194 13.1779 14.4221 13.7078 15.1618C12.3867 16.2637 10.7203 16.866 9 16.8636Z" />
</svg>
