<svg width="28" height="28" viewBox="0 0 28 28" fill="current" xmlns="http://www.w3.org/2000/svg">
<path d="M18.888 2.29846H9.11134C4.86467 2.29846 2.33301 4.79234 2.33301 8.97563V18.5949C2.33301 22.7897 4.86467 25.2835 9.11134 25.2835H18.8763C23.123 25.2835 25.6547 22.7897 25.6547 18.6064V8.97563C25.6663 4.79234 23.1347 2.29846 18.888 2.29846ZM13.9997 21.3531C10.3013 21.3531 7.29134 18.388 7.29134 14.7449C7.29134 13.4347 7.67634 12.1591 8.42301 11.0788C8.69134 10.688 9.23967 10.5731 9.63634 10.8374C10.033 11.1017 10.1497 11.6419 9.88134 12.0326C9.33301 12.8371 9.05301 13.7795 9.05301 14.7449C9.05301 17.4341 11.2813 19.6292 14.0113 19.6292C16.7413 19.6292 18.9697 17.4341 18.9697 14.7449C18.9697 12.1706 16.9397 10.0559 14.373 9.87204L14.8513 10.2168C15.2363 10.4926 15.3297 11.0328 15.038 11.4235C14.758 11.8028 14.2097 11.8947 13.813 11.6074L11.5497 9.98697C11.468 9.92951 11.398 9.86055 11.3397 9.7801C11.328 9.76861 11.3163 9.75712 11.3047 9.73413C11.258 9.65369 11.223 9.56175 11.1997 9.4698C11.1763 9.35488 11.1763 9.25145 11.188 9.13652C11.1997 9.09055 11.2113 9.04458 11.223 8.99861C11.2463 8.91816 11.293 8.84921 11.3397 8.76876C11.363 8.75727 11.3863 8.73428 11.4097 8.7113L13.3463 6.52772C13.6613 6.17145 14.2213 6.13697 14.583 6.44727C14.9447 6.75757 14.9797 7.30921 14.6647 7.66548L14.233 8.15966C17.8263 8.27458 20.7197 11.1937 20.7197 14.7679C20.708 18.388 17.698 21.3531 13.9997 21.3531Z" />
</svg>
