<svg width="513" height="480" viewBox="0 0 513 480" fill="none" xmlns="http://www.w3.org/2000/svg">
<path d="M73.7331 134.142L75.8887 138.512L80.7094 139.212L77.2213 142.613L78.0456 147.415L73.7331 145.146L69.4221 147.415L70.245 142.613L66.7568 139.212L71.5776 138.512L73.7331 134.142Z" fill="#ECEDEC"/>
<path d="M505.265 339.791L507.422 344.159L512.243 344.86L508.755 348.259L509.579 353.062L505.265 350.795L500.954 353.062L501.777 348.259L498.289 344.86L503.11 344.159L505.265 339.791Z" fill="#F4F6F5"/>
<path d="M419.793 466.566L421.949 470.935L426.769 471.636L423.281 475.036L424.106 479.837L419.793 477.571L415.481 479.837L416.304 475.036L412.815 471.636L417.638 470.935L419.793 466.566Z" fill="#F4F6F5"/>
<path d="M224.253 56.687L225.054 58.3081L226.842 58.5678C227.289 58.6337 227.467 59.1819 227.144 59.4951L225.849 60.7577L226.154 62.5395C226.231 62.9847 225.764 63.324 225.365 63.1138L223.763 62.273L222.163 63.1138C221.763 63.3226 221.296 62.9847 221.372 62.5395L221.677 60.7577L220.382 59.4951C220.06 59.1805 220.238 58.6324 220.685 58.5678L222.473 58.3081L223.273 56.687C223.474 56.2817 224.049 56.2817 224.248 56.687H224.253Z" fill="#ECEDEC"/>
<path d="M4.03074 445.823L4.83168 447.444L6.62178 447.704C7.06828 447.768 7.24688 448.316 6.92403 448.632L5.6285 449.895L5.93349 451.677C6.01043 452.122 5.54333 452.461 5.14354 452.25L3.54303 451.41L1.94252 452.25C1.54273 452.461 1.07563 452.122 1.15257 451.677L1.45893 449.895L0.164783 448.632C-0.158066 448.316 0.0205314 447.768 0.465652 447.704L2.25575 447.444L3.05532 445.823C3.2559 445.418 3.83291 445.418 4.03211 445.823H4.03074Z" fill="#F4F6F5"/>
<path d="M40.0022 39.5484L40.8031 41.1695L42.5932 41.4292C43.0397 41.4951 43.2183 42.0433 42.8955 42.3579L41.5999 43.6204L41.9063 45.4023C41.9819 45.8461 41.5161 46.1868 41.1163 45.9752L39.5145 45.1344L37.9139 45.9752C37.5142 46.1868 37.0471 45.8461 37.124 45.4023L37.429 43.6204L36.1348 42.3579C35.812 42.0433 35.9892 41.4938 36.4357 41.4292L38.2258 41.1695L39.0267 39.5484C39.226 39.1445 39.8043 39.1445 40.0035 39.5484H40.0022Z" fill="#ECEDEC"/>
<path d="M37.8349 360.905C37.8349 361.881 37.0422 362.675 36.0654 362.675C35.0886 362.675 34.2959 361.882 34.2959 360.905C34.2959 359.926 35.0886 359.136 36.0654 359.136C37.0422 359.136 37.8349 359.927 37.8349 360.905Z" fill="#ECEDEC"/>
<path d="M290.555 139.007C290.555 139.984 289.762 140.776 288.786 140.776C287.809 140.776 287.015 139.984 287.015 139.007C287.015 138.03 287.807 137.236 288.786 137.236C289.762 137.236 290.555 138.029 290.555 139.007Z" fill="#ECEDEC"/>
<path d="M198.605 41.0144C198.605 41.9912 197.812 42.7839 196.834 42.7839C195.857 42.7839 195.064 41.9925 195.064 41.0144C195.064 40.0376 195.856 39.2449 196.834 39.2449C197.811 39.2449 198.605 40.0362 198.605 41.0144Z" fill="#F4F6F5"/>
<path d="M208.981 463.648C208.981 458.24 204.595 453.853 199.184 453.853C193.774 453.853 189.388 458.24 189.388 463.648C189.388 469.061 193.773 473.446 199.184 473.446C204.595 473.446 208.981 469.061 208.981 463.648Z" fill="#F0F1EF"/>
<path d="M195.791 457.932C193.711 457.932 191.778 458.598 190.205 459.747C189.684 460.945 189.392 462.265 189.392 463.651C189.392 469.065 193.778 473.438 199.191 473.438C201.018 473.438 202.738 472.931 204.204 472.052V472.038C204.938 470.68 205.351 469.133 205.351 467.479C205.351 462.211 201.071 457.932 195.791 457.932Z" fill="#E8E8E7"/>
<path d="M119.902 258.783V208.334L77.028 258.783H119.902ZM119.902 293.339H38.7627V256.706L119.902 160.257H158.723V258.783H178.844V293.339H158.723V323.302H119.902V293.339Z" fill="#3571B7"/>
<path d="M236.909 242.599C236.909 263.011 238.712 276.954 242.321 284.427C245.93 291.9 251.159 295.636 258.012 295.636C262.532 295.636 266.45 294.05 269.768 290.878C273.086 287.706 275.527 282.696 277.096 275.842C278.662 268.99 279.446 258.309 279.446 243.803C279.446 222.516 277.641 208.208 274.034 200.881C270.424 193.555 265.013 189.891 257.795 189.891C250.431 189.891 245.109 193.629 241.828 201.1C238.549 208.575 236.909 222.407 236.909 242.598V242.599ZM192.73 242.489C192.73 212.019 198.215 190.694 209.187 178.52C220.159 166.343 236.871 160.256 259.325 160.256C270.114 160.256 278.971 161.587 285.898 164.248C292.823 166.911 298.474 170.371 302.847 174.637C307.22 178.901 310.665 183.384 313.181 188.086C315.696 192.788 317.72 198.274 319.25 204.544C322.238 216.502 323.733 228.967 323.733 241.942C323.733 271.029 318.814 292.317 308.971 305.805C299.129 319.292 282.179 326.033 258.122 326.033C244.634 326.033 233.735 323.883 225.426 319.582C217.114 315.282 210.297 308.974 204.977 300.664C201.111 294.758 198.105 286.685 195.955 276.442C193.803 266.2 192.728 254.883 192.728 242.488L192.73 242.489Z" fill="#3571B7"/>
<path d="M418.651 258.783V208.334L375.778 258.783H418.651ZM418.651 293.339H337.512V256.706L418.651 160.257H457.473V258.783H477.593V293.339H457.473V323.302H418.651V293.339Z" fill="#3571B7"/>
<path d="M188.443 106.458C187.069 106.458 185.956 105.345 185.956 103.97C185.956 102.596 187.069 101.483 188.443 101.483C189.815 101.483 190.929 102.596 190.929 103.97C190.929 105.345 189.817 106.458 188.443 106.458Z" fill="#C1D6EF"/>
<path d="M20.2835 199.751C19.3095 199.751 18.5195 198.959 18.5195 197.985C18.5195 197.013 19.3095 196.221 20.2835 196.221C21.2576 196.221 22.0475 197.013 22.0475 197.985C22.0475 198.961 21.2576 199.751 20.2835 199.751Z" fill="#C1D6EF"/>
<path d="M311.066 456.782C309.672 456.782 308.541 455.651 308.541 454.257C308.541 452.862 309.672 451.733 311.066 451.733C312.459 451.733 313.59 452.864 313.59 454.257C313.59 455.651 312.459 456.782 311.066 456.782Z" fill="#C1D6EF"/>
<path d="M371.658 354.245C370.682 354.245 369.894 353.453 369.894 352.479C369.894 351.507 370.682 350.715 371.658 350.715C372.633 350.715 373.422 351.507 373.422 352.479C373.422 353.455 372.633 354.245 371.658 354.245Z" fill="#C1D6EF"/>
<path d="M486.794 39.069C485.819 39.069 485.03 38.2791 485.03 37.305C485.03 36.3296 485.82 35.541 486.794 35.541C487.767 35.541 488.558 36.331 488.558 37.305C488.558 38.2791 487.767 39.069 486.794 39.069Z" fill="#C1D6EF"/>
<path d="M151.569 3.52937C150.593 3.52937 149.805 2.73804 149.805 1.764C149.805 0.791326 150.593 0 151.569 0C152.541 0 153.333 0.791326 153.333 1.764C153.333 2.73942 152.541 3.52937 151.569 3.52937Z" fill="#C1D6EF"/>
<path d="M293.255 94.1677C292.283 94.1677 291.491 93.3778 291.491 92.4051C291.491 91.4297 292.283 90.6411 293.255 90.6411C294.231 90.6411 295.019 91.4297 295.019 92.4051C295.019 93.3778 294.231 94.1677 293.255 94.1677Z" fill="#C1D6EF"/>
<path d="M140.519 64.9615C140.519 81.0944 127.44 94.1746 111.306 94.1746C95.1716 94.1746 82.0928 81.0944 82.0928 64.9615C82.0928 48.8273 95.1716 35.7484 111.306 35.7484C127.44 35.7484 140.519 48.8273 140.519 64.9615Z" fill="#3571B7"/>
<path d="M111.306 94.1746C95.1716 94.1746 82.0928 81.0944 82.0928 64.9615C82.0928 48.8273 95.1716 35.7484 111.306 35.7484C127.44 35.7484 140.519 48.8273 140.519 64.9615C140.519 76.9839 133.257 87.311 122.878 91.7938V91.7814C127.584 86.5897 130.457 79.7041 130.457 72.1384C130.457 55.9959 117.381 42.9198 101.237 42.9198C97.1417 42.9198 93.2551 43.7661 89.7162 45.28C84.9819 50.4717 82.0955 57.3835 82.0955 64.9643C82.0955 81.0917 95.1716 94.1678 111.3 94.1678C115.084 94.1678 118.703 93.4506 122.027 92.1441C118.708 93.4548 115.089 94.1746 111.305 94.1746H111.306ZM127.076 45.3048C125.601 45.3048 124.405 46.5 124.405 47.9755C124.405 49.4496 125.601 50.6449 127.076 50.6449C128.55 50.6449 129.745 49.4496 129.745 47.9755C129.745 46.5 128.552 45.3048 127.076 45.3048Z" fill="#C1D6EF"/>
<path d="M122.029 92.1442C122.316 92.0301 122.597 91.9147 122.878 91.7938V91.7952C122.598 91.9147 122.315 92.0329 122.029 92.1442Z" fill="#D6E4F4"/>
<path d="M111.303 94.1678C95.1724 94.1678 82.0977 81.0917 82.0977 64.9643C82.0977 57.3835 84.9855 50.4717 89.7183 45.28C93.2573 43.7661 97.1438 42.9198 101.239 42.9198C117.383 42.9198 130.459 55.9959 130.459 72.1384C130.459 79.7041 127.587 86.5884 122.88 91.7814V91.7938C122.598 91.9147 122.317 92.0315 122.031 92.1441C118.706 93.4506 115.089 94.1678 111.304 94.1678H111.303ZM104.677 73.6345C101.451 73.6345 98.835 76.2489 98.835 79.4747C98.835 82.7018 101.451 85.3162 104.677 85.3162C107.904 85.3162 110.518 82.7018 110.518 79.4747C110.518 76.2489 107.902 73.6345 104.677 73.6345ZM120.036 62.6439C117.622 62.6439 115.666 64.6016 115.666 67.0154C115.666 69.4278 117.624 71.3855 120.036 71.3855C122.45 71.3855 124.406 69.4278 124.406 67.0154C124.406 64.6002 122.448 62.6439 120.036 62.6439ZM95.6642 47.9741C94.1901 47.9741 92.9935 49.1694 92.9935 50.6435C92.9935 52.119 94.1887 53.3156 95.6642 53.3156C97.1397 53.3156 98.3349 52.1203 98.3349 50.6435C98.3349 49.1694 97.1397 47.9741 95.6642 47.9741Z" fill="#A3C3E6"/>
<path d="M95.6629 53.3156C94.1888 53.3156 92.9922 52.1203 92.9922 50.6435C92.9922 49.1694 94.1874 47.9741 95.6629 47.9741C97.1384 47.9741 98.3336 49.1694 98.3336 50.6435C98.3336 52.119 97.1384 53.3156 95.6629 53.3156Z" fill="#8CB2DE"/>
<path d="M127.076 50.6435C125.601 50.6435 124.405 49.4483 124.405 47.9742C124.405 46.4987 125.601 45.3035 127.076 45.3035C128.55 45.3035 129.745 46.4987 129.745 47.9742C129.745 49.4483 128.551 50.6435 127.076 50.6435Z" fill="#A3C3E6"/>
<path d="M120.035 71.3856C117.621 71.3856 115.665 69.4279 115.665 67.0154C115.665 64.6003 117.623 62.6439 120.035 62.6439C122.449 62.6439 124.405 64.6016 124.405 67.0154C124.405 69.4279 122.448 71.3856 120.035 71.3856Z" fill="#8CB2DE"/>
<path d="M104.676 85.3162C101.451 85.3162 98.835 82.7018 98.835 79.4747C98.835 76.2489 101.451 73.6345 104.676 73.6345C107.904 73.6345 110.518 76.2489 110.518 79.4747C110.518 82.7018 107.902 85.3162 104.676 85.3162Z" fill="#8CB2DE"/>
<path d="M458.225 411.479C458.225 425.637 446.748 437.113 432.59 437.113C418.433 437.113 406.956 425.637 406.956 411.479C406.956 397.32 418.433 385.846 432.59 385.846C446.748 385.846 458.225 397.321 458.225 411.479Z" fill="#3571B7"/>
<path d="M425.2 436.032C414.645 432.859 406.954 423.068 406.954 411.479C406.954 397.32 418.431 385.846 432.588 385.846C439.262 385.846 445.342 388.395 449.903 392.576C449.535 392.239 449.157 391.914 448.769 391.599C446.438 390.893 443.951 390.518 441.384 390.518C427.225 390.518 415.747 401.996 415.747 416.155C415.747 424.18 419.426 431.328 425.199 436.033L425.2 436.032ZM440.246 435.949C450.664 432.692 458.221 422.966 458.221 411.476C458.221 410.899 458.203 410.326 458.165 409.756C458.202 410.324 458.223 410.9 458.223 411.479C458.223 422.969 450.663 432.693 440.245 435.949H440.246Z" fill="#709CD2"/>
<path d="M432.586 437.114C430.018 437.114 427.534 436.739 425.2 436.032C427.54 436.736 430.02 437.113 432.59 437.113C435.257 437.113 437.828 436.705 440.248 435.949C437.828 436.706 435.254 437.114 432.586 437.114ZM458.167 409.756C457.716 402.966 454.622 396.899 449.904 392.576C454.628 396.894 457.717 402.963 458.167 409.756Z" fill="#ADC8E8"/>
<path d="M432.59 437.113C430.021 437.113 427.541 436.735 425.2 436.032C419.427 431.326 415.748 424.178 415.748 416.154C415.748 401.995 427.226 390.517 441.385 390.517C443.953 390.517 446.438 390.892 448.771 391.598C449.157 391.912 449.536 392.239 449.904 392.575C454.623 396.899 457.716 402.965 458.166 409.754C458.204 410.323 458.223 410.897 458.223 411.474C458.223 422.965 450.664 432.69 440.248 435.948C437.828 436.703 435.256 437.111 432.59 437.111V437.113Z" fill="#5A89C6"/>
<path d="M408.1 419.076C380.721 431.96 401.146 441.887 439.716 428.026C475.428 415.192 489.005 399 457.117 404.019C458.764 410.829 414.035 428.257 408.1 419.076Z" fill="#3571B7"/>
<path d="M448.451 160.257H443.69C443.692 160.256 443.695 160.256 443.696 160.253H448.456C448.453 160.256 448.452 160.256 448.451 160.257Z" fill="#CCCDCB"/>
<path d="M353.376 293.333H350.644C363.108 217.365 407.826 184.577 443.692 160.256H448.452C412.599 184.482 366.19 216.43 353.377 293.333H353.376Z" fill="#2664AE"/>
<path d="M263.019 400.835C240.392 400.837 217.941 390.62 207.039 373.919C200.301 363.601 192.477 341.986 215.779 313.149L217.853 314.827C201.369 335.225 198.322 355.694 209.271 372.463C222.596 392.874 254.065 403.138 280.911 395.835C308.415 388.35 325.114 364.425 326.725 330.197C332.238 213.122 394.439 177.058 439.855 150.724C468.07 134.365 488.458 122.543 483.977 97.6065C483.356 94.1472 481.975 91.7568 479.759 90.2991C473.954 86.473 462.622 89.1176 449.5 92.1758C423.759 98.1712 388.505 106.385 367.505 70.6643L369.803 69.3125C389.812 103.345 422.572 95.712 448.894 89.5792C462.615 86.3837 474.464 83.6237 481.223 88.0708C484.084 89.9529 485.842 92.919 486.599 97.1353C491.412 123.911 469.25 136.761 441.191 153.031C396.306 179.055 334.835 214.699 329.389 330.32C327.719 365.781 310.305 390.596 281.61 398.405C275.564 400.051 269.283 400.834 263.019 400.835Z" fill="#3571B7"/>
<path d="M263.019 400.835C258.123 400.835 253.235 400.357 248.472 399.438C248.361 399.416 248.249 399.394 248.139 399.374C231.017 395.993 215.528 386.921 207.04 373.919C206.786 373.533 206.533 373.132 206.28 372.714C206.798 371.831 207.309 370.944 207.809 370.053C208.265 370.864 208.753 371.669 209.272 372.463C219.694 388.426 241.215 398.183 262.94 398.183C268.994 398.183 275.061 397.426 280.912 395.833C308.416 388.349 325.115 364.423 326.727 330.196C332.24 213.121 394.44 177.056 439.856 150.723C465.439 135.888 484.588 124.785 484.596 104.254C484.598 102.143 484.396 99.931 483.978 97.6051C483.357 94.1458 481.976 91.7553 479.76 90.2977C477.704 88.9417 474.952 88.399 471.673 88.399C465.698 88.399 457.974 90.2001 449.502 92.1757C438.905 94.6431 426.693 97.4869 414.532 97.4869C399.329 97.4883 384.204 93.0481 372.383 77.8782C372.922 77.0059 373.394 76.1362 373.76 75.2941C385.036 90.4268 399.472 94.9027 414.315 94.9027C426.041 94.9027 438.016 92.1125 448.896 89.5778C457.48 87.5775 465.331 85.7489 471.662 85.7489C475.451 85.7489 478.694 86.4042 481.225 88.0693C484.085 89.9515 485.844 92.9176 486.601 97.1338C487.047 99.6177 487.261 101.982 487.261 104.241C487.25 126.324 466.648 138.269 441.193 153.029C437.198 155.344 433.069 157.739 428.864 160.256C421.517 164.655 413.926 169.436 406.362 174.866C384.701 190.417 363.275 211.278 348.483 243.668C344.228 252.984 340.519 263.264 337.514 274.634C333.239 290.823 330.384 309.239 329.392 330.318C327.721 365.779 310.308 390.595 281.613 398.404C276.047 399.918 270.284 400.701 264.52 400.819C264.407 400.82 264.297 400.823 264.186 400.824C263.797 400.831 263.41 400.834 263.022 400.834L263.019 400.835Z" fill="#608CC8"/>
<path d="M340.004 39.08C349.145 38.9138 358.115 41.9252 358.115 41.9252C358.115 41.9252 372.734 66.9523 374.517 72.6798C373.903 78.3331 364.363 87.6009 364.363 87.6009L340.005 39.08H340.004Z" fill="#3571B7"/>
<path d="M369.604 81.7717C369.199 81.2277 368.773 80.6795 368.328 80.1286C368.435 80.0668 368.541 80.0077 368.647 79.9459C368.651 79.8827 368.653 79.8181 368.653 79.7563C368.651 78.5047 367.743 77.8412 367.743 77.8412C367.743 77.8412 367.708 77.859 367.642 77.8934C367.135 74.1964 364.763 67.5649 361.57 59.7726C361.573 59.7753 361.575 59.7767 361.578 59.7794C361.04 58.4647 360.478 57.1225 359.899 55.7555C361.738 56.7969 363.533 57.8465 365.222 58.8988C366.593 59.6819 368.171 61.1066 369.787 62.751C372.076 67.0662 373.948 70.8539 374.517 72.6797C374.429 73.4889 374.157 74.3723 373.757 75.2927C373.392 76.1335 372.919 77.0045 372.381 77.8769C371.559 79.2068 370.585 80.538 369.604 81.7717Z" fill="#709CD2"/>
<path d="M383.446 160.657C377.933 153.66 372.518 146.531 368.035 138.809C366.915 136.88 365.853 134.917 364.849 132.922C364.279 131.791 363.726 130.648 363.191 129.5C362.722 128.497 361.689 127.019 361.585 125.921C359.984 109.026 365.768 96.5884 360.214 83.026L338.253 91.6083C338.253 91.6083 340.121 115.771 344.384 130.225C347.029 139.194 353.016 146.957 358.789 154.141C360.594 156.389 362.333 158.688 364.136 160.94C365.841 163.071 367.75 165.026 369.461 167.144C372.057 170.363 372.922 173.434 370.947 177.227C370.842 177.429 370.732 177.631 370.618 177.831C370.058 178.819 372.681 179.939 374.326 177.857C377.049 174.417 376.62 174.63 378.942 171.694C380.351 169.912 381.97 167.988 383.367 166.316C384.731 164.686 384.761 162.325 383.445 160.656L383.446 160.657Z" fill="#3571B7"/>
<path d="M372.072 179.035C371.217 179.035 370.541 178.595 370.541 178.11C370.541 178.018 370.566 177.925 370.618 177.831C370.732 177.631 370.842 177.43 370.948 177.227C371.687 175.803 372.029 174.483 372.029 173.218C372.029 171.109 371.084 169.156 369.461 167.143C367.751 165.024 365.841 163.069 364.136 160.939C362.334 158.688 360.595 156.388 358.789 154.14C353.018 146.956 347.031 139.191 344.385 130.224C340.627 117.489 338.731 97.2149 338.333 92.5741C338.512 92.7692 338.653 92.8997 338.653 92.8997C338.653 92.8997 342.625 91.5382 348.021 89.4253C349.699 92.357 355.401 102.199 361.648 111.571C361.446 114.136 361.295 116.786 361.295 119.549C361.294 121.605 361.378 123.726 361.586 125.918C361.691 127.016 362.724 128.494 363.192 129.497C363.728 130.647 364.281 131.79 364.851 132.919C365.855 134.914 366.916 136.877 368.037 138.806C371.048 143.992 374.478 148.911 378.078 153.703C375.138 157.255 369.16 161.866 366.525 163.733C367.098 164.37 367.667 165.023 368.236 165.676C373.657 162.134 377.943 157.541 379.571 155.671C380.85 157.345 382.146 159.003 383.447 160.654C384.09 161.47 384.411 162.448 384.414 163.429C384.414 163.543 384.41 163.66 384.4 163.774C384.479 162.683 384.158 161.569 383.441 160.657L383.286 160.463C382.36 161.428 381.709 162.965 381.599 164.691C381.511 165.882 381.713 166.972 382.103 167.824C382.146 167.775 382.187 167.725 382.23 167.676C381.135 168.987 379.982 170.378 378.942 171.693C376.62 174.627 377.049 174.416 374.326 177.856C373.643 178.719 372.794 179.032 372.072 179.032V179.035Z" fill="#C1D6EF"/>
<path d="M379.57 155.674C379.068 155.022 378.57 154.364 378.075 153.705C378.075 153.705 378.075 153.705 378.075 153.704C378.574 154.365 379.071 155.027 379.573 155.671C379.571 155.673 379.57 155.674 379.57 155.674Z" fill="#C1D6EF"/>
<path d="M368.234 165.678C367.664 165.026 367.096 164.373 366.523 163.736C369.158 161.867 375.136 157.258 378.076 153.705C378.571 154.364 379.069 155.022 379.571 155.674C377.943 157.544 373.656 162.137 368.235 165.678H368.234Z" fill="#95B8E1"/>
<path d="M382.23 167.679C382.619 167.212 383.001 166.755 383.368 166.317C383.988 165.577 384.332 164.686 384.4 163.777C384.334 164.686 383.992 165.578 383.369 166.32C383.001 166.755 382.626 167.214 382.23 167.679Z" fill="#C1D6EF"/>
<path d="M382.103 167.826C381.713 166.974 381.511 165.883 381.598 164.692C381.708 162.966 382.36 161.429 383.286 160.465L383.441 160.658C384.158 161.571 384.478 162.685 384.4 163.776C384.331 164.685 383.988 165.575 383.368 166.316C383.001 166.754 382.621 167.21 382.23 167.677C382.188 167.727 382.147 167.776 382.104 167.826H382.103Z" fill="#95B8E1"/>
<path d="M334.785 55.0823C332.487 58.4221 329.778 61.7152 326.285 64.673C324.548 66.1595 322.57 67.5031 320.395 68.6461C319.296 69.2053 318.145 69.6916 316.951 70.0914L316.051 70.3799L315.76 70.4706C315.55 70.5365 315.337 70.5915 315.124 70.6423C314.721 70.7344 314.317 70.7976 313.96 70.825C312.516 70.9349 311.471 70.7289 310.608 70.5145C308.906 70.0502 307.768 69.4292 306.692 68.8288C305.63 68.2189 304.702 67.5897 303.82 66.944C302.083 65.6223 300.513 64.2966 299.05 62.8802C296.102 60.0666 293.49 57.1485 291.062 53.8994C289.958 52.4198 290.26 50.3206 291.741 49.2161C292.884 48.3629 294.394 48.3478 295.531 49.0663L295.633 49.1323C298.781 51.1312 301.954 53.2359 305.052 55.1222C306.617 56.0467 308.145 56.9727 309.646 57.694C310.385 58.069 311.109 58.4084 311.762 58.6501C312.398 58.8974 313.033 59.0389 313.198 59.0073C313.268 59.0018 313.184 58.9084 312.693 58.9263C312.575 58.9318 312.406 58.9469 312.236 58.9854L311.945 59.0595L311.991 59.0266L312.431 58.7999C313.019 58.5031 313.582 58.1281 314.151 57.7503C315.293 56.9782 316.379 55.9973 317.487 54.9216C319.682 52.7427 321.794 50.028 324.022 47.2089L324.052 47.1704C326.335 44.2799 330.53 43.7881 333.42 46.0714C336.189 48.2585 336.744 52.2151 334.78 55.0851L334.785 55.0823Z" fill="#3571B7"/>
<path d="M313.173 70.858C312.122 70.858 311.305 70.6904 310.608 70.5173C308.906 70.0529 307.768 69.432 306.693 68.8316C305.631 68.2216 304.702 67.5924 303.82 66.9467C302.084 65.6251 300.513 64.2993 299.05 62.8829C296.102 60.0693 293.49 57.1513 291.063 53.9022C290.824 53.5821 290.651 53.2331 290.542 52.8718C290.747 52.9776 290.961 53.0642 291.186 53.126L297.658 51.0295L297.334 50.4855L297.344 50.4869C297.264 50.366 297.191 50.2327 297.128 50.0884C299.782 51.7934 302.445 53.5368 305.054 55.1249C306.619 56.0495 308.146 56.9755 309.648 57.6967C310.387 58.0718 311.111 58.4111 311.764 58.6529C311.961 58.7298 312.158 58.7972 312.341 58.8521L312.434 58.8026C313.022 58.5059 313.585 58.1308 314.154 57.753C315.296 56.981 316.382 56 317.49 54.9243C319.685 52.7454 321.797 50.0307 324.025 47.2116L324.055 47.1732C324.517 46.5893 325.057 46.103 325.649 45.7169C324.219 46.8077 323.4 48.5058 323.401 50.2835C323.401 50.6682 323.44 51.0556 323.518 51.4403C324.322 55.3873 325.45 59.7533 326.814 64.221C326.639 64.3735 326.462 64.526 326.284 64.6785C324.547 66.165 322.569 67.5086 320.394 68.6516C319.295 69.2108 318.144 69.6971 316.95 70.0969L316.05 70.3854L315.759 70.4761C315.548 70.542 315.335 70.597 315.123 70.6478C314.72 70.7399 314.316 70.8031 313.959 70.8305C313.683 70.8525 313.422 70.8621 313.172 70.8621L313.173 70.858ZM312.637 58.929C312.856 58.984 313.034 59.0115 313.139 59.0115C313.162 59.0115 313.183 59.0101 313.198 59.0073C313.212 59.006 313.22 59.0019 313.22 58.995C313.221 58.9716 313.115 58.9222 312.808 58.9222C312.773 58.9222 312.735 58.9222 312.694 58.9249C312.676 58.9249 312.657 58.9263 312.636 58.9277L312.637 58.929Z" fill="#C1D6EF"/>
<path d="M286.041 46.3682L287.603 48.9894C287.603 48.9894 288.797 52.4776 291.185 53.1233L297.657 51.0268L297.333 50.4828L297.342 50.4842C296.512 49.2216 296.602 46.7872 296.893 44.7622C297.186 42.7385 296.135 42.6643 295.358 43.1685C294.909 43.4598 294.593 44.383 294.229 45.379C293.91 44.9408 293.568 44.5176 293.184 44.1357L291.207 42.1656C290.354 41.318 288.987 41.2768 288.087 42.0791L286.485 43.5024C285.669 44.2277 285.482 45.4298 286.043 46.3695L286.041 46.3682Z" fill="#3571B7"/>
<path d="M291.185 53.1233C288.797 52.4776 287.603 48.9894 287.603 48.9894L286.041 46.3681C285.826 46.0055 285.72 45.6029 285.72 45.2045C285.72 44.5712 285.984 43.9475 286.484 43.5023L288.085 42.0791C288.52 41.693 289.06 41.5034 289.599 41.5034C290.182 41.5034 290.763 41.726 291.205 42.1656L293.182 44.1357C293.567 44.5176 293.909 44.9407 294.228 45.379C294.592 44.383 294.908 43.4584 295.357 43.1685C295.603 43.0091 295.875 42.9075 296.126 42.9075C296.572 42.9075 296.941 43.2317 296.943 44.1274C296.943 44.3143 296.926 44.5245 296.892 44.7621C296.772 45.6002 296.686 46.5097 296.686 47.3765C296.684 48.602 296.855 49.745 297.342 50.4841L297.333 50.4828L297.657 51.0268L291.185 53.1233Z" fill="#C1D6EF"/>
<path d="M346.559 36.7801C340.36 38.2845 331.844 41.8207 326.093 45.4036C324.054 46.6731 323.036 49.0841 323.517 51.4361C326.082 64.0232 331.936 80.8828 338.254 91.6083L367.737 79.4142C367.939 74.2128 360.782 57.3862 353.491 41.1242C352.181 38.1993 349.674 36.0259 346.558 36.7815L346.559 36.7801Z" fill="#3571B7"/>
<path d="M337.878 90.9585C333.679 83.6497 329.712 73.7087 326.813 64.2155C325.449 59.7492 324.321 55.3818 323.517 51.4348C323.439 51.0487 323.4 50.6613 323.4 50.278C323.399 48.3217 324.39 46.4643 326.093 45.4037C326.408 45.2072 326.732 45.0107 327.063 44.8157C327.132 44.8953 327.198 44.9764 327.261 45.0547C333.19 44.9008 338.223 43.5243 341.935 41.6627C341.933 41.7232 341.933 41.7836 341.933 41.8441C341.933 44.1864 343.171 46.4601 345.367 47.6787L345.391 47.6938L353.968 52.4542C356.016 55.1469 359.158 57.9289 361.57 59.7739C364.761 67.5676 367.135 74.1978 367.642 77.8947C366.368 78.5514 353.122 85.3395 337.878 90.9585ZM334.369 75.4685C334.501 75.4768 334.631 75.4809 334.758 75.4809C335.196 75.4809 335.607 75.4301 335.994 75.3353C335.994 75.3353 349.007 70.4843 352.946 68.7066C350.294 63.214 345.974 51.2232 345.974 51.2232L344.349 51.3565C340.151 51.6367 331 55.0837 327.749 57.5497C328.306 61.8924 331.562 71.1218 334.369 75.4685Z" fill="#D6E4F4"/>
<path d="M361.578 59.7795C361.576 59.7768 361.573 59.7754 361.57 59.7726C361.033 58.462 360.474 57.1211 359.896 55.7528C359.897 55.7528 359.898 55.7542 359.9 55.7556C360.478 57.1225 361.04 58.4647 361.578 59.7795Z" fill="#5F8DC9"/>
<path d="M361.57 59.7725C359.159 57.9275 356.017 55.1455 353.969 52.4528L355.476 53.2894C356.954 54.1041 358.439 54.9257 359.895 55.7527C360.474 57.121 361.033 58.4619 361.57 59.7725Z" fill="#A6C4E6"/>
<path d="M344.617 23.5749C342.184 18.9327 336.918 16.5958 330.596 17.1234C325.264 17.5685 320.537 23.0116 321.097 25.953C321.658 28.8943 326.144 30.139 326.958 31.1612L323.261 33.8415C321.421 35.1769 321.061 37.7706 322.465 39.558C324.022 41.5349 326.072 43.5984 327.263 45.0547C337.481 44.7895 345.039 40.892 347.763 37.1414C346.784 32.3674 347.038 28.1909 344.618 23.5749H344.617Z" fill="#3571B7"/>
<path d="M327.262 45.0548C326.071 43.5972 324.021 41.5351 322.465 39.5581C321.886 38.8217 321.606 37.9494 321.606 37.0825C321.608 35.8474 322.176 34.6261 323.259 33.8416L326.956 31.1613C326.143 30.1391 321.656 28.8944 321.095 25.9531C321.065 25.7923 321.05 25.6234 321.05 25.4489C321.054 22.432 325.553 17.5439 330.594 17.1235C331.18 17.074 331.759 17.0507 332.328 17.0507C337.87 17.0507 342.409 19.3656 344.615 23.575C346.717 27.5838 346.802 31.2643 347.43 35.291C345.525 35.6317 343.783 36.7926 342.771 38.6129C342.233 39.5828 341.962 40.627 341.935 41.6628C338.223 43.5244 333.19 44.9009 327.261 45.0548H327.262Z" fill="#D6E4F4"/>
<path d="M339.608 26.4477C341.638 31.6407 339.074 37.4987 333.88 39.5293C328.686 41.5584 322.829 38.9935 320.8 33.8004C318.77 28.6059 321.335 22.7507 326.529 20.7202C331.724 18.691 337.58 21.2532 339.609 26.4477H339.608Z" fill="#243840"/>
<path d="M426.178 146.61C426.029 142.224 425.84 142.663 425.713 138.923C425.637 136.652 425.626 134.139 425.611 131.96C425.597 129.834 424.094 128.013 422.011 127.592C420.243 127.233 418.471 126.891 416.709 126.517C414.407 126.027 412.132 125.497 409.871 124.841C408.119 124.332 406.383 123.771 404.666 123.15C402.827 122.486 401.011 121.762 399.213 120.992C397.112 120.091 395.036 119.13 392.976 118.141C390.674 117.037 388.394 115.896 386.119 114.741C377.343 100.213 377.155 90.6425 367.737 79.4142L347.522 88.557C347.522 88.557 362.375 114.91 372.489 126.085C378.311 132.515 387.447 135.414 395.593 137.518C401.47 139.036 407.43 140.197 413.396 141.293C415.717 141.719 418.239 141.884 420.234 143.267C421.805 144.359 422.619 146.06 423.084 147.869C423.179 148.239 423.259 148.613 423.33 148.986C423.542 150.103 426.268 149.261 426.177 146.611L426.178 146.61Z" fill="#3571B7"/>
<path d="M424.015 149.466C423.665 149.466 423.394 149.306 423.332 148.985C423.262 148.61 423.181 148.238 423.086 147.868C422.62 146.059 421.807 144.358 420.235 143.266C418.241 141.882 415.718 141.716 413.398 141.292C413.321 141.278 413.243 141.264 413.166 141.249C415.504 134.922 415.872 128.226 415.927 126.348C415.132 126.174 414.323 125.995 413.517 125.806C413.581 130.408 411.422 138.361 410.63 140.77C411.223 140.881 411.825 140.998 412.423 141.11C406.782 140.066 401.15 138.949 395.594 137.515C387.449 135.412 378.313 132.513 372.491 126.082C363.472 116.116 350.681 94.0772 348.021 89.4267C354.2 87.0061 362.247 83.6017 368.328 80.1287C377.167 91.0506 377.533 100.522 386.121 114.74C388.396 115.895 390.676 117.035 392.977 118.14C395.038 119.129 397.114 120.089 399.215 120.99C401.011 121.761 402.828 122.487 404.667 123.149C406.385 123.768 408.12 124.33 409.873 124.84C412.134 125.495 414.409 126.026 416.71 126.516C418.072 126.806 419.437 127.075 420.804 127.349C420.784 127.344 420.764 127.342 420.744 127.338C420.833 128.591 421.612 130.045 422.914 131.201C423.768 131.97 424.732 132.483 425.618 132.723C425.632 134.712 425.647 136.913 425.714 138.923C425.841 142.663 426.03 142.224 426.18 146.61C426.181 146.654 426.183 146.698 426.183 146.74C426.18 148.541 424.863 149.467 424.016 149.467L424.015 149.466ZM425.617 132.527C425.611 132.333 425.61 132.145 425.609 131.959C425.603 131.105 425.358 130.301 424.934 129.617C425.361 130.301 425.607 131.105 425.613 131.959C425.614 132.146 425.615 132.336 425.617 132.527Z" fill="#D6E4F4"/>
<path d="M413.165 141.252C412.918 141.205 412.669 141.157 412.422 141.11C412.669 141.155 412.918 141.202 413.165 141.247C413.165 141.249 413.165 141.25 413.165 141.252Z" fill="#C1D6EF"/>
<path d="M413.165 141.248C412.918 141.202 412.669 141.155 412.422 141.11C411.824 140.996 411.222 140.881 410.629 140.769C411.422 138.361 413.58 130.408 413.517 125.806C414.322 125.995 415.13 126.174 415.926 126.348C415.871 128.225 415.503 134.921 413.165 141.249V141.248Z" fill="#A6C4E6"/>
<path d="M425.622 132.724C425.619 132.724 425.617 132.723 425.616 132.723C425.615 132.657 425.615 132.592 425.615 132.528C425.616 132.591 425.619 132.657 425.622 132.724ZM424.932 129.618C424.296 128.597 423.257 127.844 422.01 127.592C421.606 127.511 421.203 127.428 420.801 127.349C421.203 127.419 421.615 127.504 422.014 127.585C423.26 127.842 424.297 128.596 424.932 129.617V129.618Z" fill="#C1D6EF"/>
<path d="M425.617 132.723C424.73 132.481 423.766 131.97 422.913 131.201C421.61 130.047 420.831 128.592 420.742 127.338C420.763 127.342 420.782 127.344 420.803 127.349C421.205 127.428 421.608 127.509 422.012 127.592C423.259 127.844 424.298 128.599 424.934 129.618C425.358 130.302 425.603 131.106 425.608 131.96C425.61 132.147 425.611 132.336 425.617 132.528C425.617 132.591 425.617 132.657 425.618 132.723H425.617Z" fill="#A6C4E6"/>
<path d="M337.72 26.5341C338.26 28.555 335.997 30.6803 334.187 28.9314C332.718 27.5137 330.503 25.1383 328.697 24.009C326.842 22.8481 329.315 20.8245 332.232 21.6103C334.953 22.3426 337.18 24.5118 337.72 26.5341Z" fill="#FEFEFE"/>
<path d="M337.876 90.9599C336.936 91.3047 338.653 92.9024 338.653 92.9024C338.653 92.9024 357.28 86.5183 368.647 79.9459C368.743 78.5734 367.743 77.8425 367.743 77.8425C367.743 77.8425 353.914 85.0483 337.876 90.9599Z" fill="#3571B7"/>
<path d="M338.653 92.9024C338.653 92.9024 337.594 91.9188 337.594 91.328C337.594 91.1673 337.672 91.034 337.875 90.9599C353.912 85.0483 367.742 77.8425 367.742 77.8425C367.742 77.8425 368.651 78.5047 368.653 79.7576C368.653 79.8195 368.651 79.8827 368.646 79.9472C368.541 80.0091 368.435 80.0695 368.328 80.13C362.247 83.603 354.199 87.0087 348.021 89.428C342.625 91.541 338.653 92.9024 338.653 92.9024Z" fill="#9ABBE2"/>
<path d="M351.607 35.8968C355.284 37.7528 358.745 39.7215 362.203 41.8963C363.924 42.9802 365.638 44.093 367.326 45.2951C369.028 46.4711 370.706 47.7131 372.391 49.1102L373.023 49.6282L373.812 50.3385C374.372 50.833 374.782 51.2864 375.194 51.7398C375.625 52.2082 375.983 52.6602 376.333 53.1095C376.697 53.5601 377.042 54.0107 377.352 54.4531C378.673 56.2239 379.747 58.0237 380.801 59.811C382.85 63.4324 384.625 67.0497 386.088 70.9418C386.742 72.6797 385.865 74.6154 384.127 75.268C382.823 75.7584 381.405 75.3847 380.504 74.4327L380.438 74.3599C377.759 71.5243 375.19 68.5321 372.604 65.7501C370.075 62.9777 367.388 60.1325 365.221 58.896C362.195 57.0098 358.823 55.1331 355.475 53.2881L345.392 47.6911L345.367 47.676C342.146 45.89 340.984 41.8303 342.772 38.6101C344.512 35.4709 348.428 34.2949 351.607 35.894V35.8968Z" fill="#3571B7"/>
<path d="M379.07 72.894C376.877 70.5091 374.745 68.0581 372.603 65.7542C370.074 62.9818 367.387 60.1366 365.22 58.9002C363.53 57.8465 361.735 56.7982 359.895 55.7555C358.437 54.9285 356.954 54.1083 355.475 53.2922L353.968 52.4556L345.392 47.6952L345.367 47.6801C343.171 46.4615 341.934 44.1879 341.934 41.8455C341.934 40.7505 342.203 39.6405 342.772 38.6142C343.989 36.4216 346.267 35.1865 348.613 35.1865C349.626 35.1865 350.649 35.4173 351.607 35.8982C355.284 37.7542 358.745 39.7229 362.203 41.8977C363.924 42.9816 365.638 44.0944 367.326 45.2965C369.028 46.4725 370.706 47.7145 372.391 49.1117L373.023 49.6296L373.812 50.3399C374.372 50.8344 374.782 51.2878 375.194 51.7412C375.625 52.2096 375.983 52.6616 376.333 53.1109C376.697 53.5615 377.042 54.0121 377.352 54.4545C378.673 56.2254 379.747 58.0251 380.801 59.8124C382.739 63.2374 384.432 66.6596 385.848 70.314C385.672 70.1862 385.484 70.0763 385.285 69.9856L378.565 71.0435L378.8 71.6315L378.791 71.6287C378.954 71.9887 379.042 72.4201 379.072 72.8927L379.07 72.894Z" fill="#D6E4F4"/>
<path d="M389.304 77.4648L388.172 74.6306C388.172 74.6306 387.54 70.9982 385.283 69.9871L378.564 71.0449L378.799 71.6329L378.789 71.6302C379.41 73.0067 378.94 75.3972 378.336 77.3522C377.73 79.3057 378.758 79.5434 379.602 79.167C380.09 78.9499 380.548 78.0872 381.064 77.1585C381.31 77.642 381.581 78.1133 381.901 78.5529L383.545 80.8087C384.254 81.7814 385.599 82.0328 386.613 81.383L388.418 80.2262C389.339 79.6368 389.711 78.4801 389.304 77.4648Z" fill="#3571B7"/>
<path d="M385.387 81.7429C384.682 81.7429 383.989 81.416 383.546 80.8087L381.901 78.5529C381.58 78.1133 381.309 77.642 381.064 77.1585C380.548 78.0872 380.092 78.9486 379.603 79.167C379.391 79.2618 379.169 79.3181 378.961 79.3181C378.519 79.3181 378.155 79.0598 378.153 78.3702C378.153 78.1009 378.208 77.7643 378.336 77.3522C378.74 76.047 379.083 74.5454 379.083 73.2843C379.082 72.6564 378.997 72.0876 378.789 71.6302L378.799 71.6329L378.564 71.0449L385.283 69.9871C387.541 70.9996 388.173 74.6306 388.173 74.6306L389.305 77.4648C389.416 77.7423 389.468 78.0308 389.468 78.3138C389.465 79.0694 389.085 79.7976 388.417 80.2262L386.612 81.383C386.233 81.6261 385.807 81.7429 385.385 81.7429H385.387Z" fill="#D6E4F4"/>
<path d="M334.76 75.4795C334.634 75.4795 334.503 75.4754 334.371 75.4672C339.245 73.7856 347.384 70.6162 351.323 68.8385C348.671 63.3459 345.878 55.7788 344.351 51.3537L345.976 51.2205C345.976 51.2205 350.295 63.2126 352.948 68.7038C349.009 70.4816 335.996 75.3326 335.996 75.3326C335.61 75.4273 335.2 75.4782 334.76 75.4782V75.4795Z" fill="#A6C4E6"/>
<path d="M327.75 57.5497C328.308 61.8924 331.564 71.1218 334.37 75.4686C339.245 73.787 347.383 70.6176 351.322 68.8398C348.671 63.3473 345.878 55.7802 344.35 51.3551C340.153 51.6354 331.002 55.0823 327.75 57.5483V57.5497Z" fill="#FEFEFE"/>
<path d="M334.368 65.217C334.041 65.217 333.708 65.1703 333.38 65.0728C331.561 64.5287 330.528 62.6109 331.072 60.7919C331.518 59.3013 332.884 58.3383 334.364 58.3383C334.691 58.3383 335.023 58.385 335.351 58.4839C337.172 59.0293 338.205 60.9458 337.661 62.7634C337.214 64.254 335.847 65.217 334.368 65.217Z" fill="#C1D6EF"/>
<path d="M339.132 58.9744C339.025 58.9744 338.917 58.9593 338.808 58.9263C338.212 58.7491 337.874 58.1213 338.053 57.525C338.198 57.036 338.646 56.72 339.131 56.72C339.238 56.72 339.347 56.7365 339.455 56.7681C340.052 56.9467 340.39 57.5745 340.211 58.1707C340.065 58.6584 339.617 58.9744 339.132 58.9744Z" fill="#82AADA"/>
<path d="M342.108 57.8162C342.001 57.8162 341.893 57.8025 341.784 57.7681C341.188 57.5895 340.849 56.9631 341.027 56.3655C341.174 55.8777 341.622 55.5618 342.107 55.5618C342.214 55.5618 342.323 55.5783 342.43 55.6099C343.027 55.7885 343.365 56.4163 343.187 57.0125C343.04 57.5002 342.593 57.8162 342.108 57.8162Z" fill="#82AADA"/>
<path d="M335.052 72.2675L334.308 69.8441L346.635 64.9697L347.382 67.3959L335.052 72.2675Z" fill="#96BAE2"/>
<path d="M258.123 326.039C254.742 326.039 251.526 325.904 248.47 325.633V325.629C251.526 325.9 254.742 326.035 258.122 326.035C260.195 326.035 262.214 325.985 264.183 325.885C262.218 325.988 260.201 326.037 258.123 326.037V326.039ZM264.517 325.868C264.528 325.867 264.54 325.867 264.55 325.866C264.539 325.867 264.526 325.867 264.517 325.868ZM248.138 325.603C244.545 325.272 241.184 324.753 238.046 324.045C241.182 324.751 244.547 325.269 248.138 325.6V325.603ZM226.342 320.045C226.036 319.895 225.731 319.742 225.43 319.586C225.35 319.545 225.271 319.503 225.189 319.461C225.268 319.502 225.346 319.543 225.426 319.583C225.728 319.74 226.033 319.894 226.342 320.045ZM268.549 291.951C268.962 291.617 269.368 291.259 269.763 290.88C272.978 287.808 275.369 283.009 276.944 276.485C275.371 283.012 272.979 287.808 269.767 290.88C269.37 291.259 268.964 291.617 268.549 291.951Z" fill="#CCCDCB"/>
<path d="M248.472 325.633C248.362 325.622 248.25 325.613 248.14 325.603V325.6C248.25 325.611 248.361 325.621 248.472 325.629V325.633Z" fill="#BDBEBC"/>
<path d="M264.184 325.886C264.295 325.879 264.406 325.874 264.517 325.868C264.406 325.874 264.295 325.881 264.184 325.886Z" fill="#BDBEBC"/>
<path d="M258.122 326.034C254.744 326.034 251.526 325.9 248.471 325.629C248.36 325.62 248.248 325.611 248.138 325.6C244.547 325.269 241.184 324.751 238.046 324.045C233.713 323.068 229.811 321.734 226.343 320.045C226.033 319.893 225.728 319.741 225.426 319.583C225.348 319.543 225.27 319.502 225.19 319.461C224.738 319.223 224.29 318.98 223.848 318.73L240.847 300.671C243.401 297.958 245.876 295.171 248.265 292.319C251.034 294.534 254.286 295.641 258.016 295.641C261.995 295.641 265.508 294.41 268.548 291.951C268.963 291.617 269.37 291.259 269.767 290.88C272.979 287.808 275.37 283.012 276.943 276.485C276.996 276.272 277.046 276.057 277.096 275.839C278.323 270.478 279.069 262.759 279.337 252.705L304.95 235.518L285.151 287.144C279.937 300.771 273.178 313.758 265.017 325.838C264.861 325.848 264.707 325.857 264.55 325.865C264.539 325.867 264.527 325.867 264.517 325.868C264.406 325.874 264.296 325.879 264.183 325.886C262.216 325.986 260.195 326.036 258.122 326.036V326.034Z" fill="#2664AE"/>
<path d="M100.846 323.09C108.308 330.553 124.182 346.426 124.182 346.426L189.528 284.869C167.041 276.321 123.206 300.73 100.846 323.09Z" fill="#243840"/>
<path d="M182.225 404.469C174.762 397.005 158.889 381.133 158.889 381.133L220.446 315.786C228.994 338.273 204.585 382.107 182.225 404.469Z" fill="#243840"/>
<path d="M271.525 257.413L296.981 208.334L247.902 233.789C232.135 241.967 217.578 252.291 204.645 264.465L120.982 343.224L162.089 384.332L240.848 300.669C253.024 287.736 263.347 273.178 271.525 257.41V257.413Z" fill="#3571B7"/>
<path d="M162.089 384.333L175.989 369.568L162.089 384.333Z" fill="#AAB3B2"/>
<path d="M162.089 384.333L124.182 346.426L120.982 343.225L165.687 301.141L135.747 329.326L175.989 369.568L162.089 384.333Z" fill="#ADC8E8"/>
<path d="M179.402 365.943L207.007 336.618L168.695 298.306L204.644 264.465C217.578 252.29 232.135 241.967 247.902 233.789L296.981 208.334L279.442 242.148L271.525 257.412C269.341 261.624 267.002 265.749 264.517 269.782C264.406 269.96 264.295 270.14 264.183 270.32C259.402 278.018 254.084 285.368 248.265 292.318C245.876 295.171 243.401 297.956 240.847 300.669L223.848 318.728L223.846 318.73L179.402 365.941V365.943Z" fill="#ADC8E8"/>
<path d="M231.418 298.217C224.703 304.932 213.813 304.932 207.096 298.217C200.381 291.5 200.381 280.61 207.096 273.895C213.814 267.18 224.703 267.18 231.418 273.895C238.136 280.612 238.136 291.502 231.418 298.217Z" fill="#FEFEFE"/>
<path d="M227.07 293.868C222.754 298.183 215.76 298.183 211.446 293.868C207.131 289.554 207.131 282.56 211.446 278.246C215.76 273.931 222.754 273.931 227.07 278.246C231.383 282.56 231.383 289.554 227.07 293.868Z" fill="#3571B7"/>
<path d="M175.989 369.568L135.747 329.326L165.687 301.141L168.696 298.307L207.008 336.618L179.402 365.943L175.989 369.568Z" fill="#88ADDB"/>
<path d="M109.955 359.968C79.8149 362.419 69.8299 381.708 66.4256 407.353C64.689 420.43 63.9197 433.662 52.9373 441.318C49.8888 443.443 51.4027 448.18 55.1176 448.065C95.5686 446.802 114.437 426.993 116.807 418.698C115.991 423.942 114.802 428.078 113.485 431.332C112.13 434.674 115.801 437.768 118.856 435.854C130.212 428.739 144.455 415.647 145.402 394.417C137.005 382.616 109.957 359.968 109.957 359.968H109.955Z" fill="#3571B7"/>
<path d="M54.9836 448.066C52.7168 448.066 51.3045 446.239 51.3086 444.358C51.3114 443.24 51.8142 442.103 52.938 441.318C63.9204 433.662 64.6897 420.43 66.4262 407.353C69.8306 381.708 79.8156 362.419 109.956 359.968C109.956 359.968 137.004 382.616 145.401 394.417C144.454 415.647 130.212 428.739 118.856 435.854C118.206 436.261 117.529 436.441 116.879 436.441C114.914 436.441 113.19 434.798 113.196 432.766C113.197 432.303 113.288 431.819 113.484 431.332C114.802 428.08 115.991 423.942 116.806 418.698C114.437 426.992 95.5679 446.802 55.1169 448.065C55.0715 448.066 55.0276 448.066 54.9836 448.066Z" fill="#608CC8"/>
<path d="M150.03 403.546L101.768 355.286L127.477 349.724L155.591 377.836L150.03 403.546Z" fill="#3571B7"/>
</svg>
